<svg width="24" height="24" viewBox="0 0 24 24" fill="none" xmlns="http://www.w3.org/2000/svg">
<g clip-path="url(#clip0_486_29)">
<path d="M8.25 8.625H5.625V6C5.625 5.90054 5.58549 5.80516 5.51517 5.73484C5.44484 5.66451 5.34946 5.625 5.25 5.625C4.58249 5.625 3.92997 5.82294 3.37495 6.19379C2.81994 6.56464 2.38735 7.09174 2.13191 7.70844C1.87646 8.32514 1.80963 9.00374 1.93985 9.65843C2.07008 10.3131 2.39151 10.9145 2.86352 11.3865C3.33552 11.8585 3.93689 12.1799 4.59157 12.3102C5.24626 12.4404 5.92486 12.3735 6.54156 12.1181C7.15826 11.8626 7.68536 11.4301 8.05621 10.875C8.42706 10.32 8.625 9.66751 8.625 9C8.625 8.90054 8.58549 8.80516 8.51517 8.73483C8.44484 8.66451 8.34946 8.625 8.25 8.625ZM4.875 6.40162V8.84475L3.15 10.5697C2.87619 10.2058 2.70201 9.77676 2.64464 9.32495C2.58727 8.87314 2.6487 8.41417 2.82286 7.99335C2.99702 7.57252 3.2779 7.20438 3.63777 6.92525C3.99765 6.64611 4.42408 6.46564 4.875 6.40162ZM5.25 11.625C4.68387 11.625 4.13314 11.4407 3.681 11.1L5.406 9.375H7.84913C7.75811 9.99957 7.44545 10.5706 6.96825 10.9837C6.49105 11.3968 5.88117 11.6244 5.25 11.625Z" fill="url(#paint0_linear_486_29)"/>
<path d="M6.75 7.875H9.75C9.84946 7.875 9.94484 7.83549 10.0152 7.76517C10.0855 7.69484 10.125 7.59946 10.125 7.5C10.1239 6.60523 9.76798 5.74742 9.13528 5.11472C8.50258 4.48202 7.64477 4.12609 6.75 4.125C6.65054 4.125 6.55516 4.16451 6.48483 4.23484C6.41451 4.30516 6.375 4.40054 6.375 4.5V7.5C6.375 7.59946 6.41451 7.69484 6.48483 7.76517C6.55516 7.83549 6.65054 7.875 6.75 7.875ZM7.125 4.90163C7.68553 4.98357 8.20466 5.2442 8.60523 5.64477C9.0058 6.04534 9.26643 6.56447 9.34838 7.125H7.125V4.90163ZM14.625 9.75C13.6608 9.75 12.7183 10.0359 11.9166 10.5716C11.1149 11.1073 10.4901 11.8686 10.1211 12.7594C9.75211 13.6502 9.65557 14.6304 9.84367 15.5761C10.0318 16.5217 10.4961 17.3904 11.1779 18.0721C11.8596 18.7539 12.7283 19.2182 13.6739 19.4063C14.6196 19.5944 15.5998 19.4979 16.4906 19.1289C17.3814 18.7599 18.1427 18.1351 18.6784 17.3334C19.2141 16.5317 19.5 15.5892 19.5 14.625C19.4985 13.3325 18.9844 12.0934 18.0705 11.1795C17.1566 10.2656 15.9175 9.75149 14.625 9.75ZM12.75 13.125V10.9553C12.9897 10.8324 13.2409 10.7335 13.5 10.6598V13.125H12.75ZM17.25 13.875V14.625H12V13.875H17.25ZM15.75 13.125V10.6598C16.0091 10.7335 16.2603 10.8324 16.5 10.9553V13.125H15.75ZM15 10.5191V13.125H14.25V10.5191C14.3737 10.5079 14.4983 10.5 14.625 10.5C14.7518 10.5 14.8762 10.5079 15 10.5191ZM12 11.4454V13.125H11.625C11.5255 13.125 11.4302 13.1645 11.3598 13.2348C11.2895 13.3052 11.25 13.4005 11.25 13.5V15C11.25 15.0995 11.2895 15.1948 11.3598 15.2652C11.4302 15.3355 11.5255 15.375 11.625 15.375H17.625C17.7245 15.375 17.8198 15.3355 17.8902 15.2652C17.9605 15.1948 18 15.0995 18 15V13.5C18 13.4005 17.9605 13.3052 17.8902 13.2348C17.8198 13.1645 17.7245 13.125 17.625 13.125H17.25V11.4454C17.9214 11.9967 18.4005 12.7467 18.6186 13.5876C18.8366 14.4285 18.7823 15.3169 18.4635 16.125H10.7865C10.4677 15.3169 10.4134 14.4285 10.6314 13.5876C10.8495 12.7467 11.3286 11.9967 12 11.4454ZM14.625 18.75C13.9389 18.7493 13.2638 18.5774 12.6609 18.25C12.058 17.9227 11.5462 17.45 11.172 16.875H18.078C17.7038 17.45 17.192 17.9227 16.5891 18.25C15.9862 18.5774 15.3111 18.7493 14.625 18.75Z" fill="url(#paint1_linear_486_29)"/>
<path d="M23.1266 20.7214L21.5044 19.0991C21.5794 18.9579 21.6073 18.7964 21.584 18.6382C21.5607 18.48 21.4875 18.3334 21.375 18.2197L20.4206 17.2654C20.8803 16.2662 21.0717 15.1644 20.976 14.0687C20.8803 12.973 20.5009 11.9212 19.875 11.0167V1.5C19.875 1.20163 19.7565 0.915483 19.5455 0.704505C19.3345 0.493526 19.0484 0.375 18.75 0.375H1.5C1.20163 0.375 0.915483 0.493526 0.704505 0.704505C0.493526 0.915483 0.375 1.20163 0.375 1.5V15.75C0.375 16.0484 0.493526 16.3345 0.704505 16.5455C0.915483 16.7565 1.20163 16.875 1.5 16.875H8.66775C8.97355 17.6923 9.44452 18.4379 10.0513 19.0651C10.658 19.6923 11.3876 20.1877 12.1943 20.5204C13.0011 20.8531 13.8677 21.0159 14.7402 20.9988C15.6127 20.9816 16.4723 20.7848 17.2654 20.4206L18.2197 21.375C18.3325 21.489 18.4792 21.5632 18.6378 21.5865C18.7964 21.6099 18.9583 21.581 19.0991 21.5044L20.7214 23.1266C21.0403 23.4456 21.4729 23.6248 21.924 23.6248C22.3751 23.6248 22.8077 23.4456 23.1266 23.1266C23.4456 22.8077 23.6248 22.3751 23.6248 21.924C23.6248 21.4729 23.4456 21.0403 23.1266 20.7214ZM1.5 1.125H18.75C18.8495 1.125 18.9448 1.16451 19.0152 1.23483C19.0855 1.30516 19.125 1.40054 19.125 1.5V2.625H1.125V1.5C1.125 1.40054 1.16451 1.30516 1.23483 1.23483C1.30516 1.16451 1.40054 1.125 1.5 1.125ZM1.5 16.125C1.40054 16.125 1.30516 16.0855 1.23483 16.0152C1.16451 15.9448 1.125 15.8495 1.125 15.75V3.375H19.125V10.1141C18.5823 9.57482 17.9472 9.13726 17.25 8.82225V4.5C17.25 4.40054 17.2105 4.30516 17.1402 4.23483C17.0698 4.16451 16.9745 4.125 16.875 4.125H15.375C15.2755 4.125 15.1802 4.16451 15.1098 4.23483C15.0395 4.30516 15 4.40054 15 4.5V8.26912C14.8751 8.26162 14.7517 8.25 14.625 8.25C14.4982 8.25 14.3749 8.26162 14.25 8.26912V6.75C14.25 6.65054 14.2105 6.55516 14.1402 6.48483C14.0698 6.41451 13.9745 6.375 13.875 6.375H12.375C12.2755 6.375 12.1802 6.41451 12.1098 6.48483C12.0395 6.55516 12 6.65054 12 6.75V8.82225C10.6438 9.42816 9.54385 10.4917 8.89259 11.8267C8.24133 13.1617 8.08024 14.6832 8.4375 16.125H1.5ZM16.5 8.53237C16.2538 8.45814 16.0034 8.39903 15.75 8.35537V4.875H16.5V8.53237ZM13.5 8.35537C13.2466 8.39903 12.9962 8.45814 12.75 8.53237V7.125H13.5V8.35537ZM9 14.625C9 13.5125 9.3299 12.4249 9.94798 11.4999C10.5661 10.5749 11.4446 9.85392 12.4724 9.42818C13.5002 9.00243 14.6312 8.89104 15.7224 9.10808C16.8135 9.32512 17.8158 9.86085 18.6025 10.6475C19.3891 11.4342 19.9249 12.4365 20.1419 13.5276C20.359 14.6188 20.2476 15.7498 19.8218 16.7776C19.3961 17.8054 18.6751 18.6839 17.7501 19.302C16.8251 19.9201 15.7375 20.25 14.625 20.25C13.1337 20.2483 11.7039 19.6551 10.6494 18.6006C9.59486 17.5461 9.00169 16.1163 9 14.625ZM17.9557 20.0505C18.8079 19.5253 19.5253 18.8079 20.0505 17.9557L20.8447 18.75L18.75 20.8447L17.9557 20.0505ZM21.924 22.875C21.7991 22.8753 21.6753 22.8508 21.5599 22.803C21.4445 22.7552 21.3397 22.685 21.2516 22.5964L19.6552 21L21 19.6552L22.5964 21.2516C22.7293 21.3846 22.8199 21.5541 22.8566 21.7385C22.8932 21.923 22.8744 22.1142 22.8024 22.2879C22.7305 22.4617 22.6086 22.6102 22.4523 22.7147C22.2959 22.8192 22.1121 22.875 21.924 22.875Z" fill="url(#paint2_linear_486_29)"/>
<path d="M6.75 13.125H2.25C2.15054 13.125 2.05516 13.1645 1.98484 13.2348C1.91451 13.3052 1.875 13.4005 1.875 13.5V15C1.875 15.0995 1.91451 15.1948 1.98484 15.2652C2.05516 15.3355 2.15054 15.375 2.25 15.375H6.75C6.84946 15.375 6.94484 15.3355 7.01517 15.2652C7.08549 15.1948 7.125 15.0995 7.125 15V13.5C7.125 13.4005 7.08549 13.3052 7.01517 13.2348C6.94484 13.1645 6.84946 13.125 6.75 13.125ZM6.375 14.625H2.625V13.875H6.375V14.625Z" fill="url(#paint3_linear_486_29)"/>
</g>
<defs>
<linearGradient id="paint0_linear_486_29" x1="5.25" y1="5.625" x2="5.25" y2="12.375" gradientUnits="userSpaceOnUse">
<stop stop-color="#011FFD"/>
<stop offset="1" stop-color="#B83CFF"/>
</linearGradient>
<linearGradient id="paint1_linear_486_29" x1="12.9375" y1="4.125" x2="12.9375" y2="19.5" gradientUnits="userSpaceOnUse">
<stop stop-color="#011FFD"/>
<stop offset="1" stop-color="#B83CFF"/>
</linearGradient>
<linearGradient id="paint2_linear_486_29" x1="11.9999" y1="0.375" x2="11.9999" y2="23.6248" gradientUnits="userSpaceOnUse">
<stop stop-color="#011FFD"/>
<stop offset="1" stop-color="#B83CFF"/>
</linearGradient>
<linearGradient id="paint3_linear_486_29" x1="4.5" y1="13.125" x2="4.5" y2="15.375" gradientUnits="userSpaceOnUse">
<stop stop-color="#011FFD"/>
<stop offset="1" stop-color="#B83CFF"/>
</linearGradient>
<clipPath id="clip0_486_29">
<rect width="24" height="24" fill="white"/>
</clipPath>
</defs>
</svg>
