<svg width="24" height="24" viewBox="0 0 24 24" fill="none" xmlns="http://www.w3.org/2000/svg">
<g clip-path="url(#clip0_486_36)">
<path d="M22.9259 6.26395C24.3559 4.83195 24.3559 2.50495 22.9259 1.07595C21.4959 -0.356047 19.1659 -0.356047 17.7369 1.07595L6.79986 12.011C5.29086 11.928 3.75486 12.462 2.60386 13.612C1.10286 15.114 0.254856 19.353 0.0168565 21.383C-0.0671435 22.096 0.174856 22.795 0.680856 23.301C1.11986 23.741 1.70586 23.982 2.32086 23.982C2.41386 23.982 2.50686 23.976 2.59886 23.965C2.83986 23.937 8.53686 23.247 10.3879 21.396C11.5379 20.246 12.0709 18.71 11.9879 17.201L22.9259 6.26395ZM8.97286 19.981C8.11886 20.835 4.87786 21.682 2.36386 21.978C2.22886 21.999 2.13586 21.928 2.09386 21.886C2.05286 21.845 1.98586 21.755 2.00186 21.615C2.29586 19.113 3.17586 15.868 4.01786 15.025C4.70186 14.342 5.59786 14.001 6.49586 14.001C7.39386 14.001 8.28986 14.343 8.97386 15.025C10.3399 16.391 10.3399 18.614 8.97386 19.98L8.97286 19.981ZM10.3869 13.612C9.97586 13.201 9.51486 12.868 9.02386 12.615L19.1499 2.48895C19.7999 1.83895 20.8609 1.83895 21.5109 2.48895C22.1609 3.13895 22.1609 4.19795 21.5109 4.84895L11.3839 14.975C11.1299 14.484 10.7979 14.023 10.3869 13.612Z" fill="url(#paint0_linear_486_36)"/>
<path d="M4.72183 9.91007C4.91683 10.1051 5.17283 10.2031 5.42883 10.2031C5.68483 10.2031 5.94083 10.1051 6.13583 9.91007C6.52683 9.51907 6.52683 8.88707 6.13583 8.49607L2.48983 4.85007C1.83883 4.19907 1.83883 3.14007 2.48983 2.48907C3.14083 1.83907 4.20083 1.83907 4.84983 2.48907L8.49583 6.13607C8.88683 6.52707 9.51883 6.52707 9.90983 6.13607C10.3008 5.74507 10.3008 5.11307 9.90983 4.72207L6.26383 1.07507C4.83183 -0.354934 2.50483 -0.354934 1.07483 1.07407C-0.355172 2.50307 -0.356172 4.83307 1.07483 6.26307L4.72083 9.90907L4.72183 9.91007Z" fill="#011FFD"/>
<path d="M22.2419 17.0539L19.2869 14.0979C18.8959 13.7069 18.2639 13.7069 17.8729 14.0979C17.4819 14.4889 17.4819 15.1209 17.8729 15.5119L20.8279 18.4679C21.5729 19.2119 21.9999 20.2419 21.9999 21.2959V21.9999H21.2969C20.2279 21.9999 19.2229 21.5839 18.4679 20.8279L15.5119 17.8729C15.1209 17.4819 14.4889 17.4819 14.0979 17.8729C13.7069 18.2639 13.7069 18.8959 14.0979 19.2869L17.0539 22.2419C18.1859 23.3759 19.6939 23.9999 21.2969 23.9999H22.9999C23.5529 23.9999 23.9999 23.5529 23.9999 22.9999V21.2959C23.9999 19.7159 23.3589 18.1689 22.2419 17.0539Z" fill="#B83CFF"/>
</g>
<defs>
<linearGradient id="paint0_linear_486_36" x1="11.9994" y1="0.00195312" x2="11.9994" y2="23.982" gradientUnits="userSpaceOnUse">
<stop stop-color="#011FFD"/>
<stop offset="1" stop-color="#B83CFF"/>
</linearGradient>
<clipPath id="clip0_486_36">
<rect width="24" height="24" fill="white"/>
</clipPath>
</defs>
</svg>
