<svg width="24" height="22" viewBox="0 0 24 22" fill="none" xmlns="http://www.w3.org/2000/svg">
<path d="M3 4.5C3 3.672 3.672 3 4.5 3C5.328 3 6 3.672 6 4.5C6 5.328 5.328 6 4.5 6C3.672 6 3 5.328 3 4.5ZM8.5 6C9.328 6 10 5.328 10 4.5C10 3.672 9.328 3 8.5 3C7.672 3 7 3.672 7 4.5C7 5.328 7.672 6 8.5 6ZM24 5V17C24 19.757 21.757 22 19 22H5C2.243 22 0 19.757 0 17V5C0 2.243 2.243 0 5 0H19C21.757 0 24 2.243 24 5ZM2 5V7H22V5C22 3.346 20.654 2 19 2H5C3.346 2 2 3.346 2 5ZM22 17V9H2V17C2 18.654 3.346 20 5 20H19C20.654 20 22 18.654 22 17ZM10.207 12.207C10.598 11.816 10.598 11.184 10.207 10.793C9.816 10.402 9.184 10.402 8.793 10.793L6.612 12.974C5.74 13.846 5.74 15.264 6.631 16.154L8.812 18.225C9.211 18.606 9.845 18.59 10.225 18.189C10.606 17.789 10.589 17.156 10.189 16.776L8.027 14.722C7.935 14.63 7.935 14.48 8.027 14.388L10.208 12.207H10.207ZM15.207 10.793C14.816 10.402 14.184 10.402 13.793 10.793C13.402 11.184 13.402 11.816 13.793 12.207L15.974 14.388C16.066 14.48 16.066 14.63 15.985 14.711L13.826 16.804C13.43 17.188 13.42 17.822 13.805 18.218C14.19 18.615 14.823 18.624 15.219 18.239L17.389 16.135C18.261 15.263 18.261 13.845 17.389 12.973L15.208 10.792L15.207 10.793Z" fill="url(#paint0_linear_486_43)"/>
<defs>
<linearGradient id="paint0_linear_486_43" x1="12" y1="0" x2="12" y2="22" gradientUnits="userSpaceOnUse">
<stop stop-color="#011FFD"/>
<stop offset="1" stop-color="#B83CFF"/>
</linearGradient>
</defs>
</svg>
