<svg width="24" height="24" viewBox="0 0 24 24" fill="none" xmlns="http://www.w3.org/2000/svg">
<path d="M23.002 14C23.002 13.448 22.554 13 22.002 13H20.048C19.779 12.082 19.366 11.155 18.829 10.284C20.105 9.74 21.001 8.473 21.001 7C21.001 6.448 20.553 6 20.001 6C19.449 6 19.001 6.448 19.001 7C19.001 7.837 18.342 8.516 17.517 8.56C17.115 8.135 16.676 7.746 16.201 7.407C16.485 6.769 16.535 6.099 16.535 5.583C16.535 3.669 14.81 1 12.001 1C9.192 1 7.467 3.669 7.467 5.583C7.467 6.1 7.517 6.771 7.8 7.408C7.326 7.746 6.887 8.135 6.485 8.56C5.66 8.516 5.001 7.837 5.001 7C5.001 6.448 4.553 6 4.001 6C3.449 6 3.001 6.448 3.001 7C3.001 8.473 3.898 9.74 5.173 10.284C4.636 11.155 4.223 12.083 3.954 13H2C1.448 13 1 13.448 1 14C1 14.552 1.448 15 2 15H3.598C3.59 15.139 3.577 15.28 3.577 15.415C3.577 16.473 3.668 17.576 3.989 18.604C2.522 19.044 1.443 20.391 1.443 22C1.443 22.552 1.891 23 2.443 23C2.995 23 3.443 22.552 3.443 22C3.443 21.164 4.104 20.485 4.93 20.447C6.089 21.946 8.198 23 12.002 23C15.806 23 17.914 21.946 19.074 20.447C19.9 20.485 20.561 21.164 20.561 22C20.561 22.552 21.009 23 21.561 23C22.113 23 22.561 22.552 22.561 22C22.561 20.391 21.482 19.043 20.015 18.604C20.336 17.576 20.427 16.473 20.427 15.415C20.427 15.28 20.414 15.139 20.406 15H22.004C22.556 15 23.004 14.552 23.004 14H23.002ZM9.468 5.583C9.468 4.672 10.43 3 12.002 3C13.574 3 14.536 4.673 14.536 5.583C14.536 5.963 14.497 6.245 14.423 6.468C13.671 6.189 12.866 6.021 12.002 6.021C11.138 6.021 10.332 6.189 9.58 6.468C9.506 6.245 9.468 5.962 9.468 5.583ZM12.002 21C6.069 21 5.578 18.358 5.578 15.415C5.578 12.472 8.14 8.021 12.002 8.021C15.864 8.021 18.426 12.471 18.426 15.415C18.426 18.359 17.935 21 12.002 21Z" fill="url(#paint0_linear_486_46)"/>
<defs>
<linearGradient id="paint0_linear_486_46" x1="12.002" y1="1" x2="12.002" y2="23" gradientUnits="userSpaceOnUse">
<stop stop-color="#011FFD"/>
<stop offset="1" stop-color="#B83CFF"/>
</linearGradient>
</defs>
</svg>
