<svg width="101" height="100" viewBox="0 0 101 100" fill="none" xmlns="http://www.w3.org/2000/svg">
<rect x="1" y="0.5" width="99" height="99" rx="49.5" stroke="#B83CFF"/>
<path d="M61.502 52C61.502 51.448 61.054 51 60.502 51H58.548C58.279 50.082 57.866 49.155 57.329 48.284C58.605 47.74 59.501 46.473 59.501 45C59.501 44.448 59.053 44 58.501 44C57.949 44 57.501 44.448 57.501 45C57.501 45.837 56.842 46.516 56.017 46.56C55.615 46.135 55.176 45.746 54.701 45.407C54.985 44.769 55.035 44.099 55.035 43.583C55.035 41.669 53.31 39 50.501 39C47.692 39 45.967 41.669 45.967 43.583C45.967 44.1 46.017 44.771 46.3 45.408C45.826 45.746 45.387 46.135 44.985 46.56C44.16 46.516 43.501 45.837 43.501 45C43.501 44.448 43.053 44 42.501 44C41.949 44 41.501 44.448 41.501 45C41.501 46.473 42.398 47.74 43.673 48.284C43.136 49.155 42.723 50.083 42.454 51H40.5C39.948 51 39.5 51.448 39.5 52C39.5 52.552 39.948 53 40.5 53H42.098C42.09 53.139 42.077 53.28 42.077 53.415C42.077 54.473 42.168 55.576 42.489 56.604C41.022 57.044 39.943 58.391 39.943 60C39.943 60.552 40.391 61 40.943 61C41.495 61 41.943 60.552 41.943 60C41.943 59.164 42.604 58.485 43.43 58.447C44.589 59.946 46.698 61 50.502 61C54.306 61 56.414 59.946 57.574 58.447C58.4 58.485 59.061 59.164 59.061 60C59.061 60.552 59.509 61 60.061 61C60.613 61 61.061 60.552 61.061 60C61.061 58.391 59.982 57.043 58.515 56.604C58.836 55.576 58.927 54.473 58.927 53.415C58.927 53.28 58.914 53.139 58.906 53H60.504C61.056 53 61.504 52.552 61.504 52H61.502ZM47.968 43.583C47.968 42.672 48.93 41 50.502 41C52.074 41 53.036 42.673 53.036 43.583C53.036 43.963 52.997 44.245 52.923 44.468C52.171 44.189 51.366 44.021 50.502 44.021C49.638 44.021 48.832 44.189 48.08 44.468C48.006 44.245 47.968 43.962 47.968 43.583ZM50.502 59C44.569 59 44.078 56.358 44.078 53.415C44.078 50.472 46.64 46.021 50.502 46.021C54.364 46.021 56.926 50.471 56.926 53.415C56.926 56.359 56.435 59 50.502 59Z" fill="url(#paint0_linear_264_29)"/>
<defs>
<linearGradient id="paint0_linear_264_29" x1="50.502" y1="39" x2="50.502" y2="61" gradientUnits="userSpaceOnUse">
<stop stop-color="#011FFD"/>
<stop offset="1" stop-color="#B83CFF"/>
</linearGradient>
</defs>
</svg>
