<svg width="100" height="100" viewBox="0 0 100 100" fill="none" xmlns="http://www.w3.org/2000/svg">
<rect x="0.5" y="0.5" width="99" height="99" rx="49.5" stroke="#B83CFF"/>
<g clip-path="url(#clip0_94_58)">
<path d="M46.25 50.625H43.625V48C43.625 47.9005 43.5855 47.8052 43.5152 47.7348C43.4448 47.6645 43.3495 47.625 43.25 47.625C42.5825 47.625 41.93 47.8229 41.375 48.1938C40.8199 48.5646 40.3874 49.0917 40.1319 49.7084C39.8765 50.3251 39.8096 51.0037 39.9399 51.6584C40.0701 52.3131 40.3915 52.9145 40.8635 53.3865C41.3355 53.8585 41.9369 54.1799 42.5916 54.3102C43.2463 54.4404 43.9249 54.3735 44.5416 54.1181C45.1583 53.8626 45.6854 53.4301 46.0562 52.875C46.4271 52.32 46.625 51.6675 46.625 51C46.625 50.9005 46.5855 50.8052 46.5152 50.7348C46.4448 50.6645 46.3495 50.625 46.25 50.625ZM42.875 48.4016V50.8447L41.15 52.5697C40.8762 52.2058 40.702 51.7768 40.6446 51.3249C40.5873 50.8731 40.6487 50.4142 40.8229 49.9933C40.997 49.5725 41.2779 49.2044 41.6378 48.9252C41.9976 48.6461 42.4241 48.4656 42.875 48.4016ZM43.25 53.625C42.6839 53.625 42.1331 53.4407 41.681 53.1L43.406 51.375H45.8491C45.7581 51.9996 45.4454 52.5706 44.9682 52.9837C44.4911 53.3968 43.8812 53.6244 43.25 53.625Z" fill="url(#paint0_linear_94_58)"/>
<path d="M44.75 49.875H47.75C47.8495 49.875 47.9448 49.8355 48.0152 49.7652C48.0855 49.6948 48.125 49.5995 48.125 49.5C48.1239 48.6052 47.768 47.7474 47.1353 47.1147C46.5026 46.482 45.6448 46.1261 44.75 46.125C44.6505 46.125 44.5552 46.1645 44.4848 46.2348C44.4145 46.3052 44.375 46.4005 44.375 46.5V49.5C44.375 49.5995 44.4145 49.6948 44.4848 49.7652C44.5552 49.8355 44.6505 49.875 44.75 49.875ZM45.125 46.9016C45.6855 46.9836 46.2047 47.2442 46.6052 47.6448C47.0058 48.0453 47.2664 48.5645 47.3484 49.125H45.125V46.9016ZM52.625 51.75C51.6608 51.75 50.7183 52.0359 49.9166 52.5716C49.1149 53.1073 48.4901 53.8686 48.1211 54.7594C47.7521 55.6502 47.6556 56.6304 47.8437 57.5761C48.0318 58.5217 48.4961 59.3904 49.1779 60.0721C49.8596 60.7539 50.7283 61.2182 51.6739 61.4063C52.6196 61.5944 53.5998 61.4979 54.4906 61.1289C55.3814 60.7599 56.1427 60.1351 56.6784 59.3334C57.2141 58.5317 57.5 57.5892 57.5 56.625C57.4985 55.3325 56.9844 54.0934 56.0705 53.1795C55.1566 52.2656 53.9175 51.7515 52.625 51.75ZM50.75 55.125V52.9553C50.9897 52.8324 51.2409 52.7335 51.5 52.6598V55.125H50.75ZM55.25 55.875V56.625H50V55.875H55.25ZM53.75 55.125V52.6598C54.0091 52.7335 54.2603 52.8324 54.5 52.9553V55.125H53.75ZM53 52.5191V55.125H52.25V52.5191C52.3737 52.5079 52.4983 52.5 52.625 52.5C52.7518 52.5 52.8762 52.5079 53 52.5191ZM50 53.4454V55.125H49.625C49.5255 55.125 49.4302 55.1645 49.3598 55.2348C49.2895 55.3052 49.25 55.4005 49.25 55.5V57C49.25 57.0995 49.2895 57.1948 49.3598 57.2652C49.4302 57.3355 49.5255 57.375 49.625 57.375H55.625C55.7245 57.375 55.8198 57.3355 55.8902 57.2652C55.9605 57.1948 56 57.0995 56 57V55.5C56 55.4005 55.9605 55.3052 55.8902 55.2348C55.8198 55.1645 55.7245 55.125 55.625 55.125H55.25V53.4454C55.9214 53.9967 56.4005 54.7467 56.6186 55.5876C56.8366 56.4285 56.7823 57.3169 56.4635 58.125H48.7865C48.4677 57.3169 48.4134 56.4285 48.6314 55.5876C48.8495 54.7467 49.3286 53.9967 50 53.4454ZM52.625 60.75C51.9389 60.7493 51.2638 60.5774 50.6609 60.25C50.058 59.9227 49.5462 59.45 49.172 58.875H56.078C55.7038 59.45 55.192 59.9227 54.5891 60.25C53.9862 60.5774 53.3111 60.7493 52.625 60.75Z" fill="url(#paint1_linear_94_58)"/>
<path d="M61.1266 62.7214L59.5044 61.0991C59.5794 60.9579 59.6073 60.7964 59.584 60.6382C59.5607 60.48 59.4875 60.3334 59.375 60.2197L58.4206 59.2654C58.8803 58.2662 59.0717 57.1644 58.976 56.0687C58.8803 54.973 58.5009 53.9212 57.875 53.0167V43.5C57.875 43.2016 57.7565 42.9155 57.5455 42.7045C57.3345 42.4935 57.0484 42.375 56.75 42.375H39.5C39.2016 42.375 38.9155 42.4935 38.7045 42.7045C38.4935 42.9155 38.375 43.2016 38.375 43.5V57.75C38.375 58.0484 38.4935 58.3345 38.7045 58.5455C38.9155 58.7565 39.2016 58.875 39.5 58.875H46.6677C46.9735 59.6923 47.4445 60.4379 48.0513 61.0651C48.658 61.6923 49.3876 62.1877 50.1943 62.5204C51.0011 62.8531 51.8677 63.0159 52.7402 62.9988C53.6127 62.9816 54.4723 62.7848 55.2654 62.4206L56.2197 63.375C56.3325 63.489 56.4792 63.5632 56.6378 63.5865C56.7964 63.6099 56.9583 63.581 57.0991 63.5044L58.7214 65.1266C59.0403 65.4456 59.4729 65.6248 59.924 65.6248C60.3751 65.6248 60.8077 65.4456 61.1266 65.1266C61.4456 64.8077 61.6248 64.3751 61.6248 63.924C61.6248 63.4729 61.4456 63.0403 61.1266 62.7214ZM39.5 43.125H56.75C56.8495 43.125 56.9448 43.1645 57.0152 43.2348C57.0855 43.3052 57.125 43.4005 57.125 43.5V44.625H39.125V43.5C39.125 43.4005 39.1645 43.3052 39.2348 43.2348C39.3052 43.1645 39.4005 43.125 39.5 43.125ZM39.5 58.125C39.4005 58.125 39.3052 58.0855 39.2348 58.0152C39.1645 57.9448 39.125 57.8495 39.125 57.75V45.375H57.125V52.1141C56.5823 51.5748 55.9472 51.1373 55.25 50.8222V46.5C55.25 46.4005 55.2105 46.3052 55.1402 46.2348C55.0698 46.1645 54.9745 46.125 54.875 46.125H53.375C53.2755 46.125 53.1802 46.1645 53.1098 46.2348C53.0395 46.3052 53 46.4005 53 46.5V50.2691C52.8751 50.2616 52.7517 50.25 52.625 50.25C52.4982 50.25 52.3749 50.2616 52.25 50.2691V48.75C52.25 48.6505 52.2105 48.5552 52.1402 48.4848C52.0698 48.4145 51.9745 48.375 51.875 48.375H50.375C50.2755 48.375 50.1802 48.4145 50.1098 48.4848C50.0395 48.5552 50 48.6505 50 48.75V50.8222C48.6438 51.4282 47.5438 52.4917 46.8926 53.8267C46.2413 55.1617 46.0802 56.6832 46.4375 58.125H39.5ZM54.5 50.5324C54.2538 50.4581 54.0034 50.399 53.75 50.3554V46.875H54.5V50.5324ZM51.5 50.3554C51.2466 50.399 50.9962 50.4581 50.75 50.5324V49.125H51.5V50.3554ZM47 56.625C47 55.5125 47.3299 54.4249 47.948 53.4999C48.5661 52.5749 49.4446 51.8539 50.4724 51.4282C51.5002 51.0024 52.6312 50.891 53.7224 51.1081C54.8135 51.3251 55.8158 51.8609 56.6025 52.6475C57.3891 53.4342 57.9249 54.4365 58.1419 55.5276C58.359 56.6188 58.2476 57.7498 57.8218 58.7776C57.3961 59.8054 56.6751 60.6839 55.7501 61.302C54.8251 61.9201 53.7375 62.25 52.625 62.25C51.1337 62.2483 49.7039 61.6551 48.6494 60.6006C47.5949 59.5461 47.0017 58.1163 47 56.625ZM55.9557 62.0505C56.8079 61.5253 57.5253 60.8079 58.0505 59.9557L58.8447 60.75L56.75 62.8447L55.9557 62.0505ZM59.924 64.875C59.7991 64.8753 59.6753 64.8508 59.5599 64.803C59.4445 64.7552 59.3397 64.685 59.2516 64.5964L57.6552 63L59 61.6552L60.5964 63.2516C60.7293 63.3846 60.8199 63.5541 60.8566 63.7385C60.8932 63.923 60.8744 64.1142 60.8024 64.2879C60.7305 64.4617 60.6086 64.6102 60.4523 64.7147C60.2959 64.8192 60.1121 64.875 59.924 64.875Z" fill="url(#paint2_linear_94_58)"/>
<path d="M44.75 55.125H40.25C40.1505 55.125 40.0552 55.1645 39.9848 55.2348C39.9145 55.3052 39.875 55.4005 39.875 55.5V57C39.875 57.0995 39.9145 57.1948 39.9848 57.2652C40.0552 57.3355 40.1505 57.375 40.25 57.375H44.75C44.8495 57.375 44.9448 57.3355 45.0152 57.2652C45.0855 57.1948 45.125 57.0995 45.125 57V55.5C45.125 55.4005 45.0855 55.3052 45.0152 55.2348C44.9448 55.1645 44.8495 55.125 44.75 55.125ZM44.375 56.625H40.625V55.875H44.375V56.625Z" fill="url(#paint3_linear_94_58)"/>
</g>
<defs>
<linearGradient id="paint0_linear_94_58" x1="43.25" y1="47.625" x2="43.25" y2="54.375" gradientUnits="userSpaceOnUse">
<stop stop-color="#011FFD"/>
<stop offset="1" stop-color="#B83CFF"/>
</linearGradient>
<linearGradient id="paint1_linear_94_58" x1="50.9375" y1="46.125" x2="50.9375" y2="61.5" gradientUnits="userSpaceOnUse">
<stop stop-color="#011FFD"/>
<stop offset="1" stop-color="#B83CFF"/>
</linearGradient>
<linearGradient id="paint2_linear_94_58" x1="49.9999" y1="42.375" x2="49.9999" y2="65.6248" gradientUnits="userSpaceOnUse">
<stop stop-color="#011FFD"/>
<stop offset="1" stop-color="#B83CFF"/>
</linearGradient>
<linearGradient id="paint3_linear_94_58" x1="42.5" y1="55.125" x2="42.5" y2="57.375" gradientUnits="userSpaceOnUse">
<stop stop-color="#011FFD"/>
<stop offset="1" stop-color="#B83CFF"/>
</linearGradient>
<clipPath id="clip0_94_58">
<rect width="24" height="24" fill="white" transform="translate(38 42)"/>
</clipPath>
</defs>
</svg>
