<svg width="101" height="100" viewBox="0 0 101 100" fill="none" xmlns="http://www.w3.org/2000/svg">
<rect x="1" y="0.5" width="99" height="99" rx="49.5" stroke="#B83CFF"/>
<g clip-path="url(#clip0_94_74)">
<path d="M61.4261 44.264C62.8561 42.832 62.8561 40.505 61.4261 39.076C59.9961 37.644 57.6661 37.644 56.2371 39.076L45.3001 50.011C43.7911 49.928 42.2551 50.462 41.1041 51.612C39.6031 53.114 38.7551 57.353 38.5171 59.383C38.4331 60.096 38.6751 60.795 39.1811 61.301C39.6201 61.741 40.2061 61.982 40.8211 61.982C40.9141 61.982 41.0071 61.976 41.0991 61.965C41.3401 61.937 47.0371 61.247 48.8881 59.396C50.0381 58.246 50.5711 56.71 50.4881 55.201L61.4261 44.264ZM47.4731 57.981C46.6191 58.835 43.3781 59.682 40.8641 59.978C40.7291 59.999 40.6361 59.928 40.5941 59.886C40.5531 59.845 40.4861 59.755 40.5021 59.615C40.7961 57.113 41.6761 53.868 42.5181 53.025C43.2021 52.342 44.0981 52.001 44.9961 52.001C45.8941 52.001 46.7901 52.343 47.4741 53.025C48.8401 54.391 48.8401 56.614 47.4741 57.98L47.4731 57.981ZM48.8871 51.612C48.4761 51.201 48.0151 50.868 47.5241 50.615L57.6501 40.489C58.3001 39.839 59.3611 39.839 60.0111 40.489C60.6611 41.139 60.6611 42.198 60.0111 42.849L49.8841 52.975C49.6301 52.484 49.2981 52.023 48.8871 51.612Z" fill="url(#paint0_linear_94_74)"/>
<path d="M43.2221 47.9101C43.4171 48.1051 43.6731 48.2031 43.9291 48.2031C44.1851 48.2031 44.4411 48.1051 44.6361 47.9101C45.0271 47.5191 45.0271 46.8871 44.6361 46.4961L40.9901 42.8501C40.3391 42.1991 40.3391 41.1401 40.9901 40.4891C41.6411 39.8391 42.7011 39.8391 43.3501 40.4891L46.9961 44.1361C47.3871 44.5271 48.0191 44.5271 48.4101 44.1361C48.8011 43.7451 48.8011 43.1131 48.4101 42.7221L44.7641 39.0751C43.3321 37.6451 41.0051 37.6451 39.5751 39.0741C38.1451 40.5031 38.1441 42.8331 39.5751 44.2631L43.2211 47.9091L43.2221 47.9101Z" fill="#011FFD"/>
<path d="M60.7419 55.0539L57.7869 52.0979C57.3959 51.7069 56.7639 51.7069 56.3729 52.0979C55.9819 52.4889 55.9819 53.1209 56.3729 53.5119L59.3279 56.4679C60.0729 57.2119 60.4999 58.2419 60.4999 59.2959V59.9999H59.7969C58.7279 59.9999 57.7229 59.5839 56.9679 58.8279L54.0119 55.8729C53.6209 55.4819 52.9889 55.4819 52.5979 55.8729C52.2069 56.2639 52.2069 56.8959 52.5979 57.2869L55.5539 60.2419C56.6859 61.3759 58.1939 61.9999 59.7969 61.9999H61.4999C62.0529 61.9999 62.4999 61.5529 62.4999 60.9999V59.2959C62.4999 57.7159 61.8589 56.1689 60.7419 55.0539Z" fill="#B83CFF"/>
</g>
<defs>
<linearGradient id="paint0_linear_94_74" x1="50.4997" y1="38.002" x2="50.4997" y2="61.982" gradientUnits="userSpaceOnUse">
<stop stop-color="#011FFD"/>
<stop offset="1" stop-color="#B83CFF"/>
</linearGradient>
<clipPath id="clip0_94_74">
<rect width="24" height="24" fill="white" transform="translate(38.5 38)"/>
</clipPath>
</defs>
</svg>
