<svg width="101" height="100" viewBox="0 0 101 100" fill="none" xmlns="http://www.w3.org/2000/svg">
<rect x="1" y="0.5" width="99" height="99" rx="49.5" stroke="#B83CFF"/>
<path d="M41.5 43.5C41.5 42.672 42.172 42 43 42C43.828 42 44.5 42.672 44.5 43.5C44.5 44.328 43.828 45 43 45C42.172 45 41.5 44.328 41.5 43.5ZM47 45C47.828 45 48.5 44.328 48.5 43.5C48.5 42.672 47.828 42 47 42C46.172 42 45.5 42.672 45.5 43.5C45.5 44.328 46.172 45 47 45ZM62.5 44V56C62.5 58.757 60.257 61 57.5 61H43.5C40.743 61 38.5 58.757 38.5 56V44C38.5 41.243 40.743 39 43.5 39H57.5C60.257 39 62.5 41.243 62.5 44ZM40.5 44V46H60.5V44C60.5 42.346 59.154 41 57.5 41H43.5C41.846 41 40.5 42.346 40.5 44ZM60.5 56V48H40.5V56C40.5 57.654 41.846 59 43.5 59H57.5C59.154 59 60.5 57.654 60.5 56ZM48.707 51.207C49.098 50.816 49.098 50.184 48.707 49.793C48.316 49.402 47.684 49.402 47.293 49.793L45.112 51.974C44.24 52.846 44.24 54.264 45.131 55.154L47.312 57.225C47.711 57.606 48.345 57.59 48.725 57.189C49.106 56.789 49.089 56.156 48.689 55.776L46.527 53.722C46.435 53.63 46.435 53.48 46.527 53.388L48.708 51.207H48.707ZM53.707 49.793C53.316 49.402 52.684 49.402 52.293 49.793C51.902 50.184 51.902 50.816 52.293 51.207L54.474 53.388C54.566 53.48 54.566 53.63 54.485 53.711L52.326 55.804C51.93 56.188 51.92 56.822 52.305 57.218C52.69 57.615 53.323 57.624 53.719 57.239L55.889 55.135C56.761 54.263 56.761 52.845 55.889 51.973L53.708 49.792L53.707 49.793Z" fill="url(#paint0_linear_221_9)"/>
<defs>
<linearGradient id="paint0_linear_221_9" x1="50.5" y1="39" x2="50.5" y2="61" gradientUnits="userSpaceOnUse">
<stop stop-color="#011FFD"/>
<stop offset="1" stop-color="#B83CFF"/>
</linearGradient>
</defs>
</svg>
