<svg width="62" height="36" viewBox="0 0 62 36" fill="none" xmlns="http://www.w3.org/2000/svg">
<g clip-path="url(#clip0_408_2)">
<path d="M30.4292 30.2948L0.799699 16.7155C-0.267217 16.226 -0.267217 14.7108 0.799699 14.2213L29.2861 1.16642C30.375 0.667835 31.6266 0.667835 32.7155 1.16642L61.2006 14.2226C62.2675 14.7121 62.2675 16.2273 61.2006 16.7168L31.5711 30.2948C31.2094 30.4614 30.7909 30.4614 30.4292 30.2948Z" fill="#5E35B1"/>
<path d="M47.7918 17.5832C47.7918 14.7299 40.2743 12.4165 31.0002 12.4165C21.726 12.4165 14.2085 14.7299 14.2085 17.5832C14.2085 19.128 14.2085 26.3717 14.2085 27.9165H47.7918C47.7918 26.3717 47.7918 19.128 47.7918 17.5832Z" fill="#7E57C2"/>
<path d="M31.0002 33.0833C40.2739 33.0833 47.7918 30.7701 47.7918 27.9167C47.7918 25.0632 40.2739 22.75 31.0002 22.75C21.7264 22.75 14.2085 25.0632 14.2085 27.9167C14.2085 30.7701 21.7264 33.0833 31.0002 33.0833Z" fill="#7E57C2"/>
<path d="M30.9998 31.146C38.8469 31.146 45.2082 29.4111 45.2082 27.271C45.2082 25.1309 38.8469 23.396 30.9998 23.396C23.1528 23.396 16.7915 25.1309 16.7915 27.271C16.7915 29.4111 23.1528 31.146 30.9998 31.146Z" fill="#311B92"/>
<path d="M56.8332 35.6667C56.1189 35.6667 55.5415 35.088 55.5415 34.375V12.4167C55.5415 11.7037 56.1189 11.125 56.8332 11.125C57.5475 11.125 58.1248 11.7037 58.1248 12.4167V34.375C58.1248 35.088 57.5475 35.6667 56.8332 35.6667Z" fill="#FF9800"/>
<path d="M56.8333 33.0832C58.2601 33.0832 59.4167 31.9266 59.4167 30.4998C59.4167 29.0731 58.2601 27.9165 56.8333 27.9165C55.4066 27.9165 54.25 29.0731 54.25 30.4998C54.25 31.9266 55.4066 33.0832 56.8333 33.0832Z" fill="#FFC107"/>
</g>
<defs>
<clipPath id="clip0_408_2">
<rect width="62.0013" height="36" fill="white" transform="translate(-0.000488281)"/>
</clipPath>
</defs>
</svg>
