<svg width="40" height="40" viewBox="0 0 40 40" fill="none" xmlns="http://www.w3.org/2000/svg">
<path d="M38.3281 10.3672H1.67188C0.976563 10.3672 0.421875 10.9297 0.421875 11.6172V35.6406C0.421875 36.3359 0.984375 36.8906 1.67188 36.8906H38.3281C39.0234 36.8906 39.5781 36.3281 39.5781 35.6406V11.625C39.5859 10.9297 39.0234 10.3672 38.3281 10.3672Z" fill="#311B92"/>
<path d="M7.57031 13.7734V33.625C7.57031 34.0859 7.94531 34.4609 8.40625 34.4609H36.2188C36.6797 34.4609 37.0547 34.0859 37.0547 33.625V13.7734C37.0547 13.3125 36.6797 12.9375 36.2188 12.9375H8.40625C7.94531 12.9375 7.57031 13.3125 7.57031 13.7734ZM5.44531 23.6328C5.44531 24.4297 4.80469 25.0781 4.00781 25.0781C3.21875 25.0781 2.57031 24.4297 2.57031 23.6328C2.57031 22.8437 3.21875 22.1953 4.00781 22.1953C4.80469 22.1953 5.44531 22.8437 5.44531 23.6328Z" fill="#5E35B1"/>
<path d="M32.4531 7.21875L9.71875 7.23437C8.85156 7.23437 7.99219 7.07031 7.1875 6.75L4.85938 5.82812C4.55469 5.70312 4.55469 5.27344 4.85938 5.14844L7.1875 4.22656C7.99219 3.90625 8.85156 3.74219 9.71094 3.74219L32.4453 3.72656C32.7656 3.72656 33.0234 3.98437 33.0234 4.29687V6.64844C33.0313 6.96094 32.7734 7.21875 32.4531 7.21875Z" fill="#FFC107"/>
<path d="M35.6328 5.46875C35.6328 4.94531 35.2031 4.53125 34.6797 4.53125H33.0234V6.41406H34.6797C35.2109 6.41406 35.6328 5.99219 35.6328 5.46875ZM15.4688 3.10156L9.73438 3.10937C9 3.10937 8.40625 3.70312 8.40625 4.4375V6.55469C8.40625 7.28906 9 7.88281 9.73438 7.88281L15.4688 7.875C16.2031 7.875 16.7969 7.28125 16.7969 6.54688V4.42969C16.7969 3.69531 16.2031 3.10156 15.4688 3.10156Z" fill="#B3C3F3"/>
<path d="M38.3281 9.95312H1.67188C0.75 9.95312 0 10.7031 0 11.625V35.6484C0 36.5703 0.75 37.3203 1.67188 37.3203H38.3281C39.25 37.3203 40 36.5703 40 35.6484V11.625C40 10.7031 39.25 9.95312 38.3281 9.95312ZM39.1641 35.6484C39.1641 36.1094 38.7891 36.4844 38.3281 36.4844H1.67188C1.21094 36.4844 0.835938 36.1094 0.835938 35.6484V11.625C0.835938 11.1641 1.21094 10.7891 1.67188 10.7891H38.3281C38.7891 10.7891 39.1641 11.1641 39.1641 11.625V35.6484Z" fill="#5E35B1"/>
<path d="M36.2422 12.4609H8.42969C7.74219 12.4609 7.17969 13.0234 7.17969 13.7109V33.5625C7.17969 34.25 7.74219 34.8125 8.42969 34.8125H36.2422C36.9297 34.8125 37.4922 34.25 37.4922 33.5625V13.7109C37.4922 13.0234 36.9297 12.4609 36.2422 12.4609ZM36.6562 33.5547C36.6562 33.7812 36.4688 33.9688 36.2422 33.9688H8.42969C8.20312 33.9688 8.01562 33.7812 8.01562 33.5547V13.7109C8.01562 13.4844 8.20312 13.2969 8.42969 13.2969H36.2422C36.4688 13.2969 36.6562 13.4844 36.6562 13.7109V33.5547ZM4.00781 21.7812C2.98437 21.7812 2.15625 22.6094 2.15625 23.6328C2.15625 24.6562 2.98437 25.4922 4.00781 25.4922C5.03125 25.4922 5.85938 24.6562 5.85938 23.6328C5.85938 22.6094 5.03125 21.7812 4.00781 21.7812ZM4.00781 24.6562C3.44531 24.6562 2.98438 24.1953 2.98438 23.6328C2.98438 23.0703 3.44531 22.6094 4.00781 22.6094C4.57031 22.6094 5.03125 23.0703 5.03125 23.6328C5.02344 24.1953 4.57031 24.6562 4.00781 24.6562ZM4.34375 6.07812C6.74219 6.99219 7.14062 7.27344 8.27344 7.5C8.60938 8.01562 9.15625 8.29687 9.73438 8.29687L15.4688 8.28906C16.0078 8.28906 16.4922 8.03125 16.8125 7.64844L32.4531 7.63281C32.9375 7.63281 33.3359 7.28906 33.4297 6.82812H34.6875C35.4453 6.82812 36.0625 6.21875 36.0625 5.46875C36.0625 4.71875 35.4453 4.10937 34.6875 4.10937H33.4375C33.3516 3.65625 32.9453 3.30469 32.4609 3.30469L16.8203 3.32031C16.5 2.9375 16.0234 2.6875 15.4844 2.6875L9.75 2.69531C9.14063 2.69531 8.60156 3.00781 8.29688 3.48437C7.19531 3.70312 6.85938 3.96094 4.36719 4.91406C4.125 5.00781 3.96875 5.23438 3.96875 5.49219C3.94531 5.75 4.10156 5.97656 4.34375 6.07812ZM34.6797 4.94531C34.9766 4.94531 35.2188 5.17969 35.2188 5.46875C35.2188 5.75781 34.9766 5.99219 34.6797 5.99219H33.4453V4.94531H34.6797ZM32.4531 4.14062C32.5391 4.14062 32.6172 4.21094 32.6172 4.28906C32.6172 4.69531 32.6172 6.67969 32.6172 6.64062C32.6172 6.72656 32.5469 6.79688 32.4609 6.79688L17.1953 6.8125C17.2344 6.55469 17.2344 4.40625 17.1953 4.15625L32.4531 4.14062ZM9.73438 3.52344L15.4688 3.51562C15.9688 3.51562 16.3828 3.92188 16.3828 4.42969V6.54688C16.3828 7.04688 15.9766 7.46094 15.4688 7.46094L9.73438 7.46875C9.22656 7.46875 8.82031 7.0625 8.82031 6.55469V4.4375C8.82812 3.92969 9.23438 3.52344 9.73438 3.52344ZM7.99219 4.39844C7.98438 4.64062 7.98438 6.32031 7.99219 6.58594C7.38281 6.42188 7.14062 6.28125 5.13281 5.5C7.27344 4.65625 7.42969 4.55469 7.99219 4.39844Z" fill="#4169E1"/>
<path d="M13.3828 5.90625H13.8047C14.0312 5.90625 14.2187 5.71875 14.2187 5.49219C14.2187 5.26563 14.0312 5.07812 13.8047 5.07812H13.3828C13.1562 5.07812 12.9687 5.26563 12.9687 5.49219C12.9687 5.71875 13.1562 5.90625 13.3828 5.90625ZM11.4062 5.90625H11.8281C12.0547 5.90625 12.2422 5.71875 12.2422 5.49219C12.2422 5.26563 12.0547 5.07812 11.8281 5.07812H11.4062C11.1797 5.07812 10.9922 5.26563 10.9922 5.49219C10.9922 5.71875 11.1719 5.90625 11.4062 5.90625ZM3.15624 19.9531H4.85937C5.08593 19.9531 5.27343 19.7656 5.27343 19.5391C5.27343 19.3125 5.08593 19.125 4.85937 19.125H3.15624C2.92968 19.125 2.74218 19.3125 2.74218 19.5391C2.73437 19.7734 2.92187 19.9531 3.15624 19.9531ZM3.15624 17.8047H4.85937C5.08593 17.8047 5.27343 17.6172 5.27343 17.3906C5.27343 17.1641 5.08593 16.9766 4.85937 16.9766H3.15624C2.92968 16.9766 2.74218 17.1641 2.74218 17.3906C2.74218 17.6172 2.92187 17.8047 3.15624 17.8047ZM3.15624 15.6562H4.85937C5.08593 15.6562 5.27343 15.4688 5.27343 15.2422C5.27343 15.0156 5.08593 14.8281 4.85937 14.8281H3.15624C2.92968 14.8281 2.74218 15.0156 2.74218 15.2422C2.74218 15.4688 2.92187 15.6562 3.15624 15.6562ZM4.85937 31.6094H3.15624C2.92968 31.6094 2.74218 31.7969 2.74218 32.0234C2.74218 32.25 2.92968 32.4375 3.15624 32.4375H4.85937C5.08593 32.4375 5.27343 32.25 5.27343 32.0234C5.27343 31.7969 5.08593 31.6094 4.85937 31.6094ZM4.85937 29.4609H3.15624C2.92968 29.4609 2.74218 29.6484 2.74218 29.875C2.74218 30.1016 2.92968 30.2891 3.15624 30.2891H4.85937C5.08593 30.2891 5.27343 30.1016 5.27343 29.875C5.27343 29.6484 5.08593 29.4609 4.85937 29.4609ZM4.85937 27.3125H3.15624C2.92968 27.3125 2.74218 27.5 2.74218 27.7266C2.74218 27.9531 2.92968 28.1406 3.15624 28.1406H4.85937C5.08593 28.1406 5.27343 27.9531 5.27343 27.7266C5.27343 27.5 5.08593 27.3125 4.85937 27.3125Z" fill="#5E35B1"/>
</svg>
