<svg width="90" height="90" viewBox="0 0 90 90" fill="none" xmlns="http://www.w3.org/2000/svg">
<path d="M79.9492 50.9981C79.5158 51.095 79.0672 51.1476 78.6102 51.1518C75.3647 51.1615 72.1192 51.1698 68.8736 51.1781V58.0735C68.8653 58.3573 68.8362 58.4349 68.7767 58.583C68.5732 59.0995 68.1799 59.436 67.4904 59.4581H59.1827C58.9155 59.4498 58.8725 59.429 58.7548 59.3903C58.1996 59.2103 57.8216 58.7893 57.7995 58.0735V51.1961C54.1067 51.2003 50.4153 51.203 46.7239 51.203V78.9383C56.4328 78.9507 66.1418 78.9313 75.8507 78.84C77.9968 78.8053 79.9422 76.943 79.9492 74.6847V50.9981ZM10.7045 50.9912C10.6796 58.9084 10.6547 66.8243 10.7295 74.7415C10.7641 76.9001 12.6361 78.8192 14.8556 78.84C24.5548 78.8704 34.2555 78.9161 43.9547 78.9341V51.203C40.2633 51.203 36.5719 51.2003 32.8792 51.1961V58.0735C32.8708 58.3573 32.8404 58.4349 32.7822 58.583C32.5787 59.0995 32.1841 59.436 31.4945 59.4581H23.1882C22.921 59.4498 22.8767 59.429 22.7604 59.3903C22.2052 59.2103 21.8272 58.7893 21.8036 58.0735V51.1781C18.5595 51.1698 15.3139 51.1615 12.0684 51.1518C11.6073 51.1476 11.1504 51.0923 10.7045 50.9912ZM24.5728 45.6147V56.6889H30.1113V45.6147H24.5728ZM60.5673 45.6147V56.6889H66.1058V45.6147H60.5673ZM82.7184 20.6944H7.96023C7.96023 28.5576 7.88546 36.4209 7.96023 44.2841C7.99485 46.4289 9.83777 48.3618 12.0864 48.3826C15.325 48.3923 18.565 48.4047 21.8036 48.4158V44.2301C21.8119 43.9629 21.8341 43.9186 21.8715 43.8023C22.0528 43.2457 22.4738 42.8676 23.1882 42.8455H31.4945C31.5236 42.8469 31.5527 42.8469 31.5818 42.8483C31.8476 42.8732 31.8905 42.8981 32.0041 42.9424C32.5205 43.1473 32.8584 43.5406 32.8792 44.2301V48.456C36.8724 48.4684 40.867 48.4795 44.8602 48.4864C45.0444 48.4144 45.2493 48.3784 45.4667 48.3895C45.5941 48.4061 45.7159 48.4407 45.8308 48.4878C49.8199 48.4947 53.809 48.4961 57.7995 48.4906V44.2301C57.8078 43.9463 57.8368 43.8687 57.8964 43.7206C58.0999 43.2041 58.4945 42.8676 59.1827 42.8455H67.4904C67.5195 42.8469 67.5472 42.8469 67.5762 42.8483C67.8435 42.8732 67.885 42.8981 67.9999 42.9424C68.515 43.1473 68.8528 43.5406 68.8736 44.2301V48.4546C72.1219 48.4366 75.3702 48.413 78.6185 48.3826C80.7619 48.3493 82.7115 46.487 82.7184 44.2273V20.6944ZM32.8792 17.9266V13.7686C32.893 11.6196 34.7401 9.6618 36.979 9.62026C42.5521 9.58426 48.1265 9.58426 53.6996 9.62026C55.8485 9.66042 57.7842 11.5116 57.7995 13.7686V17.9266H32.8792ZM55.0302 17.9266C55.0302 16.5295 55.0565 15.1324 55.0302 13.7367C55.0067 13.0306 54.3905 12.4116 53.6816 12.3881C48.1348 12.2829 42.5853 12.3881 37.0372 12.3881C36.3033 12.3923 35.6525 13.0209 35.6484 13.7769V17.9266H55.0302Z" fill="#5E35B1"/>
<rect x="24.5" y="45" width="6" height="12" fill="#FFC107"/>
<rect x="60" y="45" width="6" height="12" fill="#FFC107"/>
</svg>
