<svg width="1275" height="449" viewBox="0 0 1275 449" fill="none" xmlns="http://www.w3.org/2000/svg">
<path d="M25.0108 2C402.918 24.5151 782.9 24.9771 1266.04 15.8287M13.6125 4.46509C292.139 20.2872 573.622 15.5493 1265.99 14.1245M1269.77 3.60259C1273.36 161.83 1276.2 357.066 1265.43 428.171M1256.66 13.0595C1254.13 107.635 1261.4 215.17 1257.42 432.625M1264.89 440.169C827.604 405.62 408.448 424.527 19.6761 432.079M1258.17 437.617C864.153 451.659 448.639 451.198 9.71019 427.6M21.5436 426.076C-3.8182 306.556 14.0362 195.917 2 5.80172M5.7759 429.674C14.2709 259.612 28.1423 97.2047 19.3121 4.92965" stroke="#A100FD" stroke-width="3.5" stroke-linecap="round"/>
</svg>
