<svg width="70" height="70" viewBox="0 0 70 70" fill="none" xmlns="http://www.w3.org/2000/svg">
<path d="M17.373 11.443C17.293 9.132 19.094 7 21.529 7H46.475C48.91 7 50.711 9.132 50.63 11.443C50.553 13.664 50.653 16.54 51.377 18.886C52.103 21.239 53.328 22.726 55.334 22.917V25.084C53.328 25.275 52.104 26.762 51.377 29.115C50.653 31.46 50.553 34.337 50.63 36.558C50.71 38.868 48.909 41 46.475 41H21.529C19.095 41 17.293 38.868 17.374 36.557C17.451 34.336 17.351 31.46 16.627 29.114C15.901 26.761 14.673 25.274 12.667 25.083V22.916C14.673 22.725 15.9 21.238 16.627 18.885C17.35 16.54 17.451 13.664 17.373 11.443Z" fill="#7C4DFF"/>
<path d="M37.073 23.4641V23.4361C38.926 23.1161 40.372 21.3791 40.372 19.4661C40.372 18.1141 39.852 16.9681 38.868 16.1541C37.887 15.3421 36.5109 14.9131 34.8869 14.9131H27.45V33.0801H34.9249C36.8669 33.0801 38.4799 32.6061 39.5879 31.7081C40.6969 30.8091 41.284 29.5011 41.284 27.9251C41.283 25.5441 39.593 23.7561 37.073 23.4641ZM33.59 22.6081H30.409V17.2901H34.193C36.269 17.2901 37.412 18.2011 37.412 19.8551C37.413 21.6301 36.055 22.6081 33.59 22.6081ZM30.409 24.8341H34.1679C36.8839 24.8341 38.26 25.8151 38.26 27.7501C38.26 29.6821 36.9029 30.7031 34.3349 30.7031H30.409V24.8341Z" fill="white"/>
<g filter="url(#filter0_f_324_125)">
<ellipse cx="35" cy="57.5" rx="25" ry="2.5" fill="#7C4DFF"/>
</g>
<defs>
<filter id="filter0_f_324_125" x="0" y="45" width="70" height="25" filterUnits="userSpaceOnUse" color-interpolation-filters="sRGB">
<feFlood flood-opacity="0" result="BackgroundImageFix"/>
<feBlend mode="normal" in="SourceGraphic" in2="BackgroundImageFix" result="shape"/>
<feGaussianBlur stdDeviation="5" result="effect1_foregroundBlur_324_125"/>
</filter>
</defs>
</svg>
