<svg width="73" height="83" viewBox="0 0 73 83" fill="none" xmlns="http://www.w3.org/2000/svg">
<path d="M21.448 25.3925C26.3774 19.4131 29.1116 16.0972 34.041 16.0972C42.9758 16.0972 45.29 23.0314 51.4479 27.5863C53.9 29.4 60.886 31.3726 63.3507 25.3925C60.886 33.6147 55.9566 37.352 51.0265 37.352C47.4054 37.352 42.7 33.6 38.3943 28.756C33.0869 22.7864 23.9134 22.4028 21.448 25.3925Z" fill="#31C4F3"/>
<path d="M6.64941 41.9432C11.5788 35.9638 14.313 32.6479 19.2424 32.6479C28.1772 32.6479 30.6937 39.3204 36.6493 44.1371C39.2001 46.2 46.0867 47.9226 48.5521 41.9432C46.0874 50.1654 41.1573 53.902 36.2279 53.902C32.6068 53.9027 28.0001 50.3999 23.595 45.3067C18.3702 39.265 9.11411 38.9535 6.64941 41.9432Z" fill="#31C4F3"/>
<path d="M51.0264 38.0511C46.6409 38.0511 41.4518 33.2491 37.8706 29.2206C34.5414 25.4756 29.85 24.1855 26.5852 24.2667C24.4866 24.3059 22.7688 24.8925 21.9897 25.8361L21.989 25.8368C21.7426 26.1357 21.3016 26.1777 21.0034 25.932C20.7052 25.6863 20.6618 25.246 20.9082 24.9478C20.9089 24.9457 20.9103 24.9443 20.9117 24.9429C25.8194 18.9901 28.7832 15.397 34.0416 15.397C40.4522 15.397 43.6015 18.7801 46.9356 22.3627C48.4259 23.9636 49.9673 25.6191 51.865 27.0233C53.2811 28.0698 56.4654 29.2157 59.1149 28.4765C60.7697 28.0166 61.9772 26.8882 62.7038 25.1256C62.8459 24.7812 63.2351 24.609 63.5851 24.7322C63.9365 24.8575 64.1283 25.2355 64.0219 25.5925C61.6825 33.394 56.8245 38.0511 51.0264 38.0511ZM26.805 22.8646C30.375 22.8646 35.3541 24.2828 38.9171 28.291C43.7093 33.6824 48.0101 36.6511 51.0264 36.6511C55.1501 36.6511 58.767 33.8994 61.1484 29.1142C60.6402 29.4208 60.0865 29.6595 59.4901 29.8254C56.2106 30.7382 52.5622 29.2808 51.032 28.1482C49.03 26.6677 47.4445 24.9632 45.9108 23.3161C42.6551 19.8175 39.8432 16.797 34.0416 16.797C30.2112 16.797 27.7346 19.0244 24.2388 23.1355C24.9486 22.9745 25.7284 22.8828 26.5593 22.8674C26.6405 22.8653 26.7224 22.8646 26.805 22.8646Z" fill="#1F212B"/>
<path d="M36.2271 54.603C32.669 54.603 27.9944 51.4649 23.065 45.7655C19.8464 42.0436 15.1956 40.7542 11.9399 40.7969C9.76641 40.8221 7.99051 41.4171 7.18901 42.3873L7.18831 42.388C6.94191 42.6876 6.50231 42.7289 6.20271 42.4832C5.90451 42.2368 5.86181 41.7965 6.10821 41.4983C6.10891 41.4969 6.1103 41.4955 6.111 41.4941C11.0187 35.5413 13.9825 31.9482 19.2409 31.9482C25.886 31.9482 29.1466 35.472 32.5997 39.2023C33.9745 40.6884 35.3969 42.2242 37.0881 43.592C38.6162 44.8282 41.594 45.7984 44.0993 45.1565C45.8563 44.7078 47.1359 43.5374 47.9038 41.6754C48.0466 41.3303 48.4351 41.1574 48.7851 41.282C49.1365 41.4073 49.3283 41.7853 49.2219 42.1423C46.8839 49.9459 42.0259 54.603 36.2271 54.603ZM12.0799 39.3955C15.6527 39.3955 20.643 40.8235 24.1248 44.8492C28.784 50.2357 33.0827 53.203 36.2278 53.203C40.3326 53.203 43.9355 50.4765 46.3176 45.7305C45.7492 46.0784 45.1241 46.3416 44.4479 46.5138C41.4673 47.2761 38.0471 46.168 36.2096 44.6812C34.44 43.2504 32.9833 41.6761 31.5742 40.1536C28.1946 36.5017 25.2756 33.3482 19.243 33.3482C15.4161 33.3482 12.9402 35.5714 9.44931 39.6748C10.2025 39.5019 11.0355 39.4067 11.9252 39.3969C11.9756 39.3962 12.0281 39.3955 12.0799 39.3955Z" fill="#1F212B"/>
<path d="M41.5969 48.6967C38.7115 48.6967 35.747 46.9558 34.3295 45.8085C32.8028 44.5737 31.4 43.0246 30.0427 41.5273C27.0026 38.1701 24.1312 34.9998 19.9501 34.9998C19.7569 34.9998 19.6001 34.843 19.6001 34.6498C19.6001 34.4566 19.7569 34.2998 19.9501 34.2998C24.4413 34.2998 27.5528 37.7347 30.5614 41.0569C31.9005 42.5353 33.2851 44.0641 34.7691 45.2646C36.2727 46.4805 39.6026 48.4104 42.5552 47.9204C42.7449 47.8861 42.9255 48.0184 42.9577 48.2081C42.9892 48.3985 42.8604 48.5791 42.6693 48.6106C42.3158 48.6694 41.9567 48.6967 41.5969 48.6967Z" fill="black"/>
<path d="M13.65 37.1C13.5366 37.1 13.426 37.0454 13.3581 36.9439C13.251 36.7836 13.2944 36.5659 13.4554 36.4588C15.2145 35.2856 16.4374 34.6458 18.2406 34.4043C18.4317 34.3728 18.6081 34.5128 18.634 34.7046C18.6599 34.8964 18.5255 35.0721 18.3337 35.098C16.667 35.3213 15.5141 35.9282 13.8439 37.0412C13.7844 37.0811 13.7172 37.1 13.65 37.1Z" fill="black"/>
<path d="M56.6467 32.247C53.7613 32.247 50.7968 30.5061 49.3793 29.3588C47.8526 28.124 46.4498 26.5749 45.0925 25.0776C42.0524 21.7204 39.181 18.5501 34.9999 18.5501C34.8067 18.5501 34.6499 18.3933 34.6499 18.2001C34.6499 18.0069 34.8067 17.8501 34.9999 17.8501C39.4911 17.8501 42.6026 21.285 45.6112 24.6072C46.9503 26.0856 48.3349 27.6144 49.8189 28.8149C51.3225 30.0308 54.6538 31.9558 57.605 31.4707C57.7961 31.4336 57.976 31.5687 58.0075 31.7584C58.039 31.9488 57.9102 32.1294 57.7191 32.1609C57.3656 32.2197 57.0065 32.247 56.6467 32.247Z" fill="black"/>
<path d="M28.7 20.6498C28.5866 20.6498 28.476 20.5952 28.4081 20.4937C28.301 20.3334 28.3444 20.1157 28.5054 20.0086C30.0734 18.9635 31.2137 18.3405 32.7453 18.0423C32.9364 18.0101 33.1191 18.1298 33.1555 18.3195C33.1926 18.5092 33.068 18.6933 32.8783 18.7304C31.4629 19.0055 30.3856 19.5963 28.8932 20.591C28.8344 20.6309 28.7672 20.6498 28.7 20.6498Z" fill="black"/>
<g filter="url(#filter0_f_324_123)">
<ellipse cx="38" cy="70" rx="25" ry="3" fill="#31C4F3"/>
</g>
<defs>
<filter id="filter0_f_324_123" x="3" y="57" width="70" height="26" filterUnits="userSpaceOnUse" color-interpolation-filters="sRGB">
<feFlood flood-opacity="0" result="BackgroundImageFix"/>
<feBlend mode="normal" in="SourceGraphic" in2="BackgroundImageFix" result="shape"/>
<feGaussianBlur stdDeviation="5" result="effect1_foregroundBlur_324_123"/>
</filter>
</defs>
</svg>
