<svg width="73" height="101" viewBox="0 0 73 101" fill="none" xmlns="http://www.w3.org/2000/svg">
<g clip-path="url(#clip0_324_126)">
<path d="M51.9509 65.6358C51.6906 65.7736 51.7125 65.8173 51.9619 65.6905C52.0428 65.6576 52.1106 65.6117 52.1697 65.557C52.1697 65.5111 52.1697 65.5111 51.9509 65.6358ZM52.4759 65.3514C52.3512 65.4542 52.3512 65.4542 52.5 65.3864C52.5787 65.3405 52.6487 65.2967 52.6487 65.2836C52.6487 65.2245 52.6137 65.2376 52.4759 65.3514ZM52.8172 65.1458C52.6925 65.2486 52.6925 65.2486 52.8412 65.1808C52.9222 65.1348 52.99 65.0867 52.99 65.0758C52.99 65.0211 52.955 65.032 52.8172 65.1458ZM53.1628 64.9423C53.0381 65.0451 53.0381 65.0451 53.1825 64.9751C53.2634 64.9314 53.3312 64.8855 53.3312 64.8723C53.3312 64.8176 53.2962 64.8286 53.1628 64.9423ZM53.6287 64.6339C53.3903 64.7936 53.3072 64.8964 53.5259 64.7826C53.6725 64.693 53.9219 64.4961 53.8781 64.4961C53.7841 64.5311 53.7053 64.5901 53.6266 64.6339H53.6287ZM32.7097 0.0238907C32.55 0.0348282 32.0709 0.0785782 31.6509 0.113578C21.7022 1.01483 12.3944 6.36983 6.49469 14.6189C3.23312 19.1405 1.11562 24.3926 0.317187 29.9073C0.035 31.8323 0 32.4011 0 35.0108C0 37.6183 0.035 38.1783 0.317187 40.1033C2.2225 53.2523 11.5762 64.2905 24.255 68.3811C26.5366 69.1095 28.9275 69.6126 31.6509 69.9211C32.7097 70.0348 37.2881 70.0348 38.3469 69.9211C43.0544 69.3961 47.0291 68.2345 50.9622 66.2286C51.5659 65.9223 51.6797 65.8414 51.5987 65.7736C49.6737 63.2339 47.7837 60.692 45.8916 58.1283L40.2981 50.5748L33.2916 40.1951C30.9553 36.7214 28.6103 33.2564 26.2281 29.8176C26.2041 29.8176 26.1734 34.4311 26.1603 40.0573C26.1362 49.912 26.1362 50.3123 26.0116 50.5398C25.8869 50.8133 25.6812 51.0408 25.4078 51.1676C25.1912 51.2705 24.9966 51.2923 23.9619 51.2923H22.7784L22.47 51.0998C22.2775 50.9751 22.1178 50.8023 22.015 50.5989L21.8662 50.2905L21.8772 36.5726L21.9012 22.8548L22.1178 22.5814C22.2556 22.413 22.4262 22.2751 22.6187 22.1723C22.9053 22.0345 23.0191 22.0126 24.2025 22.0126C25.5916 22.0126 25.8212 22.0673 26.1866 22.4676C29.0216 26.6939 31.8478 30.9311 34.6281 35.1814C39.1759 42.0764 45.3841 51.4848 48.4356 56.1005L53.9853 64.4983L54.2587 64.3167C56.9253 62.5383 59.3512 60.4208 61.4447 58.0058C65.8547 52.957 68.7159 46.7467 69.685 40.1186C69.9672 38.1936 70.0022 37.6226 70.0022 35.0151C70.0022 32.4055 69.9672 31.8476 69.685 29.9226C67.7797 16.7736 58.4259 5.73545 45.7472 1.64264C43.3759 0.892328 40.9369 0.380453 38.4672 0.117953C37.8044 0.0501407 33.2806 -0.0307968 32.7119 0.0282657L32.7097 0.0238907ZM47.0312 21.1923C47.3616 21.3498 47.6109 21.6473 47.7247 21.9886C47.7837 22.1723 47.7947 25.9764 47.7837 34.5448L47.7597 46.8473L45.5962 43.5223L43.4197 40.1951V31.2636C43.4197 25.4733 43.4437 22.227 43.4744 22.0673C43.5772 21.702 43.8266 21.3958 44.1591 21.2033C44.4303 21.0655 44.5353 21.0545 45.6181 21.0545C46.6309 21.0545 46.8037 21.0655 47.0312 21.1923Z" fill="black"/>
<g clip-path="url(#clip1_324_126)">
<rect width="70" height="70" rx="35" fill="white"/>
<path d="M32.7077 0.0188372C32.5572 0.0325205 32.0782 0.0804118 31.6471 0.11462C21.7048 1.01087 12.392 6.3747 6.49365 14.6188C3.20919 19.2027 1.1085 24.4024 0.314761 29.9099C0.0342131 31.8323 0 32.4002 0 35.0069C0 37.6135 0.0342131 38.1814 0.314761 40.1039C2.21701 53.2466 11.5709 64.289 24.2571 68.3802C26.5288 69.1123 28.9238 69.6117 31.6471 69.9128C32.7077 70.0291 37.2923 70.0291 38.3529 69.9128C43.0538 69.3928 47.0362 68.2297 50.9638 66.2251C51.566 65.9173 51.6823 65.8352 51.6002 65.7668C51.5455 65.7257 48.9795 62.2844 45.9003 58.1247L40.303 50.5647L33.2893 40.186C29.4301 34.48 26.2551 29.8141 26.2278 29.8141C26.2004 29.8072 26.173 34.4185 26.1593 40.0491C26.1388 49.9079 26.132 50.3047 26.0088 50.5373C25.8309 50.8726 25.694 51.0094 25.4066 51.1599C25.1877 51.2694 24.9961 51.2899 23.9629 51.2899H22.7791L22.4643 51.0915C22.259 50.9615 22.1085 50.7905 22.0059 50.592L21.8622 50.2842L21.8759 36.5667L21.8964 22.8425L22.1085 22.5756C22.218 22.432 22.4506 22.2472 22.6149 22.1583C22.8954 22.0215 23.0049 22.0078 24.1887 22.0078C25.5846 22.0078 25.8172 22.0625 26.1799 22.4593C26.2825 22.5688 30.0802 28.2884 34.6237 35.1779C39.1672 42.0674 45.3803 51.4746 48.4321 56.0927L53.9746 64.4874L54.2551 64.3026C56.739 62.688 59.3666 60.3892 61.4467 57.9947C65.8739 52.9114 68.7273 46.7129 69.6852 40.1039C69.9658 38.1814 70 37.6135 70 35.0069C70 32.4002 69.9658 31.8323 69.6852 29.9099C67.783 16.7671 58.4291 5.72474 45.7429 1.63346C43.5054 0.908247 41.1241 0.408809 38.4555 0.107778C37.7986 0.0393621 33.2757 -0.0358957 32.7077 0.0188372ZM47.0362 21.1868C47.3646 21.351 47.6315 21.6657 47.7273 21.9941C47.782 22.172 47.7957 25.9759 47.782 34.5485L47.7615 46.8497L45.5924 43.5247L43.4164 40.1996V31.2576C43.4164 25.4765 43.4438 22.2267 43.4848 22.0694C43.5943 21.6862 43.8338 21.3852 44.1623 21.2073C44.4428 21.0636 44.5455 21.05 45.6197 21.05C46.6325 21.05 46.8104 21.0636 47.0362 21.1868Z" fill="black"/>
</g>
</g>
<g filter="url(#filter0_f_324_126)">
<ellipse cx="38" cy="88.5" rx="25" ry="2.5" fill="white"/>
</g>
<defs>
<filter id="filter0_f_324_126" x="3" y="76" width="70" height="25" filterUnits="userSpaceOnUse" color-interpolation-filters="sRGB">
<feFlood flood-opacity="0" result="BackgroundImageFix"/>
<feBlend mode="normal" in="SourceGraphic" in2="BackgroundImageFix" result="shape"/>
<feGaussianBlur stdDeviation="5" result="effect1_foregroundBlur_324_126"/>
</filter>
<clipPath id="clip0_324_126">
<rect width="70" height="70" fill="white"/>
</clipPath>
<clipPath id="clip1_324_126">
<rect width="70" height="70" rx="35" fill="white"/>
</clipPath>
</defs>
</svg>
