<svg width="70" height="90" viewBox="0 0 70 90" fill="none" xmlns="http://www.w3.org/2000/svg">
<path d="M35.0011 36.1671C38.6078 36.1671 41.5316 33.349 41.5316 29.8726C41.5316 26.3963 38.6078 23.5781 35.0011 23.5781C31.3945 23.5781 28.4707 26.3963 28.4707 29.8726C28.4707 33.349 31.3945 36.1671 35.0011 36.1671Z" fill="#00D8FF"/>
<path fill-rule="evenodd" clip-rule="evenodd" d="M35.4813 16.6048C46.6158 16.6779 58.7637 17.4609 67.1025 24.6283C67.3475 24.8391 67.5838 25.0584 67.8142 25.2847C69.7815 27.2175 70.8096 30.338 69.2215 32.9062C65.9636 38.1788 58.6777 40.4784 51.6237 41.8939C41.0741 44.0108 30.0432 44.0277 19.4979 42.1638C13.4298 41.0899 7.22454 39.2077 2.91223 35.2705C1.23368 33.7383 -0.201332 31.7226 0.0232528 29.4792C0.387838 25.8498 4.00015 23.5206 7.04079 21.9435C15.486 17.5635 25.7761 16.5837 35.4813 16.6048ZM34.6734 18.2537C24.1384 18.3225 12.7356 18.9705 4.60098 25.4632C4.31661 25.6896 4.04244 25.9271 3.77848 26.1759C3.60785 26.3362 3.44306 26.5034 3.2841 26.6749C1.85639 28.2211 1.36493 30.7049 2.71243 32.5618C4.06869 34.4299 6.12787 35.7779 8.24829 36.8771C16.1787 40.9873 25.55 41.7168 34.6865 41.7477C43.9368 41.7801 53.4758 40.9676 61.6469 36.8954C64.9019 35.2719 68.5653 32.8879 68.4355 29.818C68.3159 27.001 65.4663 25.2608 63.3327 24.0182C62.7552 23.6823 62.1617 23.3716 61.5594 23.0793C53.4481 19.1617 43.9426 18.234 34.6734 18.2537Z" fill="#00D8FF"/>
<path fill-rule="evenodd" clip-rule="evenodd" d="M49.7511 0.00084891C53.8243 0.10065 55.9345 4.82083 56.213 8.30685C56.2684 8.99984 56.2888 9.69563 56.2801 10.3914C56.2713 11.1449 56.2291 11.8983 56.1605 12.6489C55.3015 21.9431 50.8988 30.7945 45.7144 38.9683C40.6438 46.9637 34.4604 54.9366 26.0487 58.6419C23.2676 59.8676 19.9601 60.6238 17.4984 59.2561C14.1238 57.3824 13.7549 52.9996 13.8176 49.6752C13.8336 48.8585 13.8891 48.0418 13.9766 47.228C15.273 35.1956 21.6008 23.7971 29.5195 13.9773C34.1396 8.24781 39.6361 2.56476 46.483 0.506883C47.5607 0.182178 48.4167 -0.0146133 49.7511 0.00084891ZM49.5557 1.64827C44.7738 1.72137 40.4804 5.1371 36.6785 8.68638C26.6831 18.0157 19.317 30.4234 16.3537 43.4355C16.1247 44.4434 15.9322 45.4582 15.7907 46.4802C15.6814 47.2715 15.6011 48.0671 15.5589 48.8655C15.5253 49.5009 15.5136 50.1377 15.5341 50.7744C15.5486 51.272 15.5822 51.7696 15.6391 52.2644C15.6814 52.6425 15.7382 53.0193 15.8097 53.3932C15.8636 53.6701 15.9264 53.9456 15.9993 54.2197C16.0591 54.4418 16.1261 54.6625 16.202 54.8817C16.7984 56.6149 18.3355 58.2708 20.3991 58.3256C25.2131 58.4521 29.7456 55.0687 33.6642 51.3915C40.5431 44.9382 45.6692 36.8289 49.6738 28.3051C52.9055 21.423 55.8616 13.9421 54.2107 6.36705C54.148 6.0803 54.0751 5.79635 53.992 5.51522C53.9234 5.2861 53.8461 5.05979 53.7615 4.83629C53.1199 3.15092 51.6105 1.64406 49.5557 1.64827Z" fill="#00D8FF"/>
<path fill-rule="evenodd" clip-rule="evenodd" d="M20.5758 0.0567656C25.7733 0.153755 30.4415 3.55402 34.5861 7.36193C42.149 14.3101 47.7272 23.1488 51.9593 32.4514C55.2377 39.6582 58.2535 47.7477 55.5731 55.3522C54.7287 57.7489 52.5922 59.9417 49.7441 59.9979C44.5218 60.0991 39.6815 56.4388 35.4815 52.4988C24.945 42.6114 17.1225 29.5586 14.442 15.7157C14.2495 14.7261 14.0964 13.7281 13.9914 12.7259C13.9054 11.9078 13.8514 11.0855 13.8368 10.2632C13.8252 9.59973 13.8397 8.93626 13.8879 8.2756C13.9199 7.83423 13.9666 7.39567 14.0293 6.95851C14.0891 6.54806 14.1649 6.13902 14.2597 5.73419C14.3224 5.46571 14.3924 5.20004 14.4727 4.93578C15.2587 2.34517 17.3033 0.0370864 20.5758 0.0567656ZM20.3789 1.70559C17.3354 1.77025 15.9427 5.22956 15.6627 7.65712C15.6058 8.15472 15.5708 8.65654 15.5547 9.15835C15.5343 9.79933 15.5431 10.4417 15.5766 11.0827C16.055 20.3586 20.3571 29.3266 25.5488 37.5384C30.4371 45.2695 36.3405 52.9697 44.4605 56.928C46.8055 58.0708 49.6551 58.969 51.6808 57.8894C54.2212 56.5344 54.5333 53.3056 54.6689 50.8991C54.7054 50.2441 54.7097 49.5863 54.6879 48.9298C54.6616 48.1061 54.5945 47.2838 54.4939 46.4657C53.5576 38.8232 50.046 31.5911 46.0122 24.7569C40.9926 16.2555 34.8428 7.78222 26.1394 3.35583C24.3369 2.43934 22.3856 1.69013 20.3789 1.70559Z" fill="#00D8FF"/>
<g filter="url(#filter0_f_324_162)">
<ellipse cx="35" cy="78.5" rx="25" ry="2.5" fill="#00D8FF"/>
</g>
<defs>
<filter id="filter0_f_324_162" x="0" y="66" width="70" height="25" filterUnits="userSpaceOnUse" color-interpolation-filters="sRGB">
<feFlood flood-opacity="0" result="BackgroundImageFix"/>
<feBlend mode="normal" in="SourceGraphic" in2="BackgroundImageFix" result="shape"/>
<feGaussianBlur stdDeviation="5" result="effect1_foregroundBlur_324_162"/>
</filter>
</defs>
</svg>
