<svg width="70" height="82" viewBox="0 0 70 82" fill="none" xmlns="http://www.w3.org/2000/svg">
<path d="M13.814 11.264L17.081 48.292C17.223 49.9 18.318 51.266 19.857 51.754L31.641 55.488C33.826 56.18 36.172 56.18 38.357 55.488L50.141 51.754C51.68 51.266 52.775 49.901 52.917 48.292L56.184 11.264C56.34 9.51 54.958 8 53.197 8H16.803C15.042 8 13.66 9.51 13.814 11.264Z" fill="#FFA500"/>
<path opacity="0.15" d="M50.142 51.7531C51.681 51.2651 52.776 49.9001 52.918 48.2911L54.352 32.0361C51.613 31.7881 49.175 33.8261 48.932 36.5771L48.054 46.5231C48.019 46.9251 47.745 47.2661 47.36 47.3881L39.656 49.8291C37.187 50.6111 35.566 53.1091 36.091 55.6451C36.112 55.7461 36.152 55.8361 36.178 55.9341C36.914 55.8561 37.645 55.7111 38.358 55.4851L50.142 51.7531Z" fill="black"/>
<path opacity="0.3" d="M13.8141 11.264L15.9961 35.995C16.8611 35.916 17.7571 35.578 18.6871 34.598C20.0041 33.21 20.5991 31.283 20.4311 29.377L19.0821 14.089C19.0311 13.503 19.4921 13 20.0791 13H26.0001C28.7611 13 30.9971 10.761 30.9971 8H16.8031C15.0421 8 13.6591 9.51 13.8141 11.264Z" fill="white"/>
<path d="M35 15V48.334C35 49.667 36.28 50.627 37.56 50.254L46.764 47.572C47.557 47.341 48.127 46.645 48.197 45.822L50.815 15.17C50.915 14.003 49.994 13 48.822 13H37C35.895 13 35 13.895 35 15Z" fill="#FFCE29"/>
<path d="M35.0001 33V28H44.9281C45.5081 28 45.9661 28.491 45.9261 29.069L45.0261 42.055C44.9981 42.46 44.7281 42.808 44.3421 42.935L35.0001 46.021V40.696L40.1791 38.921L40.5581 33.023L35.0001 33ZM46.3121 22.075L46.5391 19.076C46.5841 18.495 46.1241 18 45.5421 18H35.0001L34.9861 22.986L45.3141 22.999C45.8371 23 46.2731 22.597 46.3121 22.075Z" fill="white"/>
<path d="M34.9999 40.7158V46.0208L25.6559 42.9458C25.2719 42.8198 25.0019 42.4738 24.9709 42.0708L24.5959 37.0808C24.5519 36.5008 25.0109 36.0058 25.5929 36.0058H28.6499C29.1689 36.0058 29.6019 36.4028 29.6459 36.9198L29.8199 38.9468L34.9999 40.7158ZM28.8109 22.9908H34.9999V18.0088H24.5659C23.9909 18.0088 23.5339 18.4928 23.5679 19.0678L24.3339 32.0688C24.3649 32.5978 24.8029 33.0098 25.3319 33.0098H34.9999V28.0038H29.1889L28.8109 22.9908Z" fill="#EEEEEE"/>
<path d="M17.8571 17.256L17.3491 11.5H22.0671" stroke="white" stroke-width="3" stroke-miterlimit="10" stroke-linecap="round" stroke-linejoin="round"/>
<g filter="url(#filter0_f_324_122)">
<ellipse cx="35" cy="69.5" rx="25" ry="2.5" fill="#FFA500"/>
</g>
<defs>
<filter id="filter0_f_324_122" x="0" y="57" width="70" height="25" filterUnits="userSpaceOnUse" color-interpolation-filters="sRGB">
<feFlood flood-opacity="0" result="BackgroundImageFix"/>
<feBlend mode="normal" in="SourceGraphic" in2="BackgroundImageFix" result="shape"/>
<feGaussianBlur stdDeviation="5" result="effect1_foregroundBlur_324_122"/>
</filter>
</defs>
</svg>
