<svg width="72" height="80" viewBox="0 0 72 80" fill="none" xmlns="http://www.w3.org/2000/svg">
<path d="M36.7492 20.6599H25.4418C19.9775 20.6599 15.5479 16.8512 15.5479 12.1529C15.5479 7.45468 19.9775 3.646 25.4418 3.646H36.7492V20.6599Z" fill="#E64A19"/>
<path d="M35.3358 37.6736H25.4418C19.9775 37.6736 15.5479 33.8649 15.5479 29.1666C15.5479 24.4683 19.9775 20.6597 25.4418 20.6597H35.3358V37.6736Z" fill="#7C4DFF"/>
<path d="M25.4418 54.6877C19.9775 54.6877 15.5479 50.879 15.5479 46.1808C15.5479 41.4825 19.9775 37.6738 25.4418 37.6738H35.3358V46.1808C35.3358 50.879 30.9061 54.6877 25.4418 54.6877Z" fill="#66BB6A"/>
<path d="M45.2294 20.6599H35.3354V3.646H45.2294C50.6937 3.646 55.1234 7.45468 55.1234 12.1529C55.1234 16.8512 50.6937 20.6599 45.2294 20.6599Z" fill="#FF7043"/>
<path d="M45.2294 37.6736C50.6937 37.6736 55.1234 33.8649 55.1234 29.1666C55.1234 24.4684 50.6937 20.6597 45.2294 20.6597C39.7651 20.6597 35.3354 24.4684 35.3354 29.1666C35.3354 33.8649 39.7651 37.6736 45.2294 37.6736Z" fill="#29B6F6"/>
<g filter="url(#filter0_f_324_161)">
<ellipse cx="37" cy="67.5" rx="25" ry="2.5" fill="url(#paint0_linear_324_161)"/>
</g>
<defs>
<filter id="filter0_f_324_161" x="2" y="55" width="70" height="25" filterUnits="userSpaceOnUse" color-interpolation-filters="sRGB">
<feFlood flood-opacity="0" result="BackgroundImageFix"/>
<feBlend mode="normal" in="SourceGraphic" in2="BackgroundImageFix" result="shape"/>
<feGaussianBlur stdDeviation="5" result="effect1_foregroundBlur_324_161"/>
</filter>
<linearGradient id="paint0_linear_324_161" x1="12" y1="67.5" x2="62" y2="67.5" gradientUnits="userSpaceOnUse">
<stop stop-color="#FF7043"/>
<stop offset="1" stop-color="#29B6F6"/>
</linearGradient>
</defs>
</svg>
