<svg width="60" height="60" viewBox="0 0 60 60" fill="none" xmlns="http://www.w3.org/2000/svg">
<path d="M30 3.375C25.5908 3.375 21.3621 5.12656 18.2444 8.24435C15.1266 11.3621 13.375 15.5908 13.375 20C13.375 24.4092 15.1266 28.6379 18.2444 31.7557C21.3621 34.8734 25.5908 36.625 30 36.625C34.4092 36.625 38.6379 34.8734 41.7557 31.7557C44.8734 28.6379 46.625 24.4092 46.625 20C46.625 15.5908 44.8734 11.3621 41.7557 8.24435C38.6379 5.12656 34.4092 3.375 30 3.375Z" fill="white"/>
<path d="M16.6675 19.9998C16.6675 25.2798 19.7341 29.8382 24.1825 31.9998L17.8208 14.5732C17.0816 16.2323 16.6675 18.0632 16.6675 19.9998ZM39.0033 19.3282C39.0033 17.6807 38.1175 16.5365 37.6116 15.6515C36.9341 14.544 36.2983 13.6207 36.2983 12.5248C36.2983 11.304 37.5241 10.1582 38.8325 10.1582C38.8916 10.1582 38.945 10.1632 39.0041 10.1648C36.6341 7.9865 33.4733 6.6665 30.0008 6.6665C25.51 6.6665 21.54 8.88817 19.1241 12.2907C19.3141 12.3523 19.38 12.3232 19.6333 12.3232C21.0241 12.3232 23.1866 12.1565 23.1866 12.1565C23.9033 12.109 23.9908 13.1665 23.2691 13.2532C23.2691 13.2532 22.5491 13.3407 21.7458 13.3798L26.6883 28.1948L29.605 19.444L27.4358 13.404C26.7183 13.3657 26.0366 13.2773 26.0366 13.2773C25.3183 13.2307 25.4016 12.1315 26.1183 12.1807C26.1183 12.1807 28.325 12.3473 29.6325 12.3473C31.0283 12.3473 33.1858 12.1807 33.1858 12.1807C33.9033 12.1332 33.99 13.1907 33.2725 13.2773C33.2725 13.2773 32.5475 13.3648 31.7458 13.404L36.655 28.079L37.9875 23.6407C38.6658 21.9073 39.0033 20.474 39.0033 19.3282ZM30.2341 21.1632L26.2341 32.7898C27.4308 33.1448 28.6925 33.3332 30.0008 33.3332C31.5516 33.3332 33.0416 33.0632 34.4308 32.5773C34.3975 32.5182 34.36 32.4582 34.3325 32.394L30.2341 21.1632ZM41.7025 13.5982C41.7616 14.0232 41.7925 14.4807 41.7925 14.969C41.7925 16.3257 41.5375 17.8448 40.7766 19.7498L36.7058 31.529C40.6708 29.219 43.3333 24.9182 43.3333 19.9998C43.3333 17.6823 42.7408 15.5032 41.7025 13.5982Z" fill="#01579B"/>
<path d="M13.3335 20.0002C13.3335 29.1868 20.8085 36.6668 29.9993 36.6668C39.1918 36.6668 46.6668 29.1868 46.6668 20.0002C46.6668 10.8135 39.1918 3.3335 30.0002 3.3335C20.8085 3.3335 13.3335 10.8135 13.3335 20.0002ZM14.996 20.0002C14.996 11.7302 21.7243 5.001 29.9993 5.001C38.2743 5.001 45.0043 11.7302 45.0043 20.0002C45.0043 28.2702 38.2743 35.001 30.0002 35.001C21.7268 35.001 14.996 28.2702 14.996 20.0002Z" fill="#01579B"/>
<g filter="url(#filter0_f_324_119)">
<ellipse cx="30" cy="47.5" rx="20" ry="2.5" fill="#01579B"/>
</g>
<defs>
<filter id="filter0_f_324_119" x="0" y="35" width="60" height="25" filterUnits="userSpaceOnUse" color-interpolation-filters="sRGB">
<feFlood flood-opacity="0" result="BackgroundImageFix"/>
<feBlend mode="normal" in="SourceGraphic" in2="BackgroundImageFix" result="shape"/>
<feGaussianBlur stdDeviation="5" result="effect1_foregroundBlur_324_119"/>
</filter>
</defs>
</svg>
