<svg width="71" height="89" viewBox="0 0 71 89" fill="none" xmlns="http://www.w3.org/2000/svg">
<path d="M59.0625 21.875V48.125C59.0625 50.5859 58.2531 52.85 56.875 54.6766V54.6875C55.0266 57.1375 52.1828 58.7891 48.9453 59.0297C48.6828 59.0516 48.3984 59.0625 48.125 59.0625H21.875C15.8375 59.0625 10.9375 54.1625 10.9375 48.125V21.875C10.9375 21.6016 10.9484 21.3172 10.9703 21.0547C11.2109 17.8172 12.8625 14.9734 15.3125 13.125H15.3234C17.15 11.7469 19.4141 10.9375 21.875 10.9375H48.125C54.1625 10.9375 59.0625 15.8375 59.0625 21.875Z" fill="#FFCE29"/>
<path opacity="0.3" d="M15.3234 13.125H15.3125C12.8625 14.9734 11.2109 17.8172 10.9703 21.0547C10.9484 21.3172 10.9375 21.6016 10.9375 21.875V35C13.9573 35 16.4062 32.5511 16.4062 29.5312V21.875C16.4062 21.7569 16.4095 21.6333 16.4248 21.4594C16.5364 19.9555 17.2758 18.5609 18.4614 17.6039C18.5139 17.5678 18.5653 17.5295 18.6167 17.4912C19.5573 16.7814 20.6839 16.4062 21.875 16.4062H28.4375C31.4573 16.4062 33.9062 13.9573 33.9062 10.9375H21.875C19.4141 10.9375 17.15 11.7469 15.3234 13.125Z" fill="white"/>
<path opacity="0.15" d="M59.0625 48.125V30.625C56.0427 30.625 53.5938 33.0728 53.5938 36.0938V48.125C53.5938 51.1405 51.1405 53.5938 48.125 53.5938H36.0938C33.0739 53.5938 30.625 56.0416 30.625 59.0625H48.125C54.1658 59.0625 59.0625 54.1658 59.0625 48.125Z" fill="black"/>
<path d="M14.7656 25.7032V21.8751C14.7656 21.7078 14.7711 21.5338 14.7853 21.3731C14.933 19.3945 15.8823 17.5887 17.4059 16.3484L17.6291 16.1821" stroke="white" stroke-width="3" stroke-miterlimit="10" stroke-linecap="round" stroke-linejoin="round"/>
<path d="M31.1073 52.0257C30.6119 52.0399 30.2247 51.9098 29.9469 51.632C29.6702 51.3552 29.5312 50.9976 29.5312 50.559C29.5312 50.2243 29.6297 49.9312 29.8277 49.6818C30.0234 49.4335 30.3122 49.2968 30.6928 49.2662L31.3272 49.2213C32.4964 49.1502 33.0794 48.5345 33.0794 47.3816V37.9404C33.0794 37.3859 33.2259 36.9582 33.518 36.6585C33.81 36.3588 34.2256 36.209 34.7681 36.209C35.9056 36.209 36.4755 36.7865 36.4755 37.9404V47.339C36.4755 50.2451 34.942 51.7927 31.8741 51.983L31.1073 52.0257Z" fill="black"/>
<path d="M45.0834 52.0911C44.1493 52.0911 43.213 51.9894 42.279 51.7849C41.3449 51.5814 40.5334 51.2818 39.8476 50.8869C39.4396 50.6682 39.1826 50.3739 39.0809 50.001C38.9791 49.628 39.001 49.266 39.1465 48.9149C39.293 48.566 39.526 48.3177 39.8476 48.1711C40.168 48.0246 40.5552 48.0607 41.008 48.2794C41.5932 48.6163 42.244 48.8646 42.9582 49.0243C43.6735 49.185 44.3823 49.2649 45.0834 49.2649C46.1355 49.2649 46.8913 49.1008 47.3507 48.7727C47.8112 48.4424 48.0409 48.0311 48.0409 47.5335C48.0409 47.1113 47.8801 46.7744 47.5596 46.5261C47.237 46.2779 46.6759 46.0657 45.8709 45.8918L43.3968 45.3657C40.6373 44.7805 39.2559 43.3499 39.2559 41.0716C39.2559 40.0949 39.5194 39.2352 40.0455 38.4969C40.5716 37.7608 41.3044 37.1866 42.2473 36.7786C43.189 36.3707 44.2794 36.165 45.5219 36.165C46.339 36.165 47.1429 36.2635 47.9304 36.4614C48.7201 36.6572 49.4135 36.946 50.0129 37.3266C50.3771 37.5454 50.6046 37.8308 50.6921 38.1808C50.7796 38.5319 50.7544 38.8677 50.6155 39.1904C50.4766 39.5108 50.2426 39.7372 49.9145 39.8674C49.5841 39.9997 49.1794 39.9494 48.6982 39.7143C48.2148 39.466 47.7029 39.2844 47.1637 39.1674C46.6234 39.0514 46.0688 38.9924 45.499 38.9924C44.5791 38.9924 43.8682 39.1707 43.3629 39.5294C42.8598 39.8882 42.6071 40.3508 42.6071 40.9196C42.6071 41.3439 42.7602 41.6863 43.0687 41.9499C43.3749 42.2124 43.9087 42.4246 44.6677 42.5843L47.1418 43.1104C49.9746 43.7239 51.3921 45.1119 51.3921 47.2732C51.3921 48.2357 51.1318 49.0811 50.6144 49.803C50.096 50.5271 49.3643 51.0882 48.4237 51.4896C47.483 51.8899 46.3696 52.0911 45.0834 52.0911Z" fill="black"/>
<g filter="url(#filter0_f_324_124)">
<ellipse cx="36" cy="76.5" rx="25" ry="2.5" fill="#FFCE29"/>
</g>
<defs>
<filter id="filter0_f_324_124" x="1" y="64" width="70" height="25" filterUnits="userSpaceOnUse" color-interpolation-filters="sRGB">
<feFlood flood-opacity="0" result="BackgroundImageFix"/>
<feBlend mode="normal" in="SourceGraphic" in2="BackgroundImageFix" result="shape"/>
<feGaussianBlur stdDeviation="5" result="effect1_foregroundBlur_324_124"/>
</filter>
</defs>
</svg>
