<svg width="60" height="70" viewBox="0 0 60 70" fill="none" xmlns="http://www.w3.org/2000/svg">
<path d="M46.5523 7.5H13.4473L16.3683 40.6055L29.9998 44.5L43.6313 40.6055L46.5523 7.5Z" fill="#3070B7"/>
<path d="M30.0001 45C29.9536 45 29.9076 44.9935 29.8631 44.9805L16.2316 41.0855C16.0326 41.0285 15.8886 40.855 15.8706 40.6485L12.9491 7.5435C12.9371 7.404 12.9836 7.2655 13.0786 7.162C13.1736 7.0585 13.3071 7 13.4476 7H46.5531C46.6931 7 46.8271 7.059 46.9216 7.1625C47.0161 7.266 47.0631 7.4045 47.0511 7.544L44.1296 40.649C44.1116 40.8555 43.9681 41.029 43.7686 41.086L30.1371 44.981C30.0926 44.9935 30.0466 45 30.0001 45ZM16.8366 40.219L30.0001 43.98L43.1636 40.219L46.0071 8H13.9931L16.8366 40.219Z" fill="#1F212B"/>
<path d="M30 10.25V41.4815L40.9055 38.366L43.3545 10.25H30Z" fill="#09ACE3"/>
<path d="M38.8605 15.2896H30L29.5 17.0001L30 19.1841H34.771L34.479 23.0791H30L29.5 25.0001L30 26.9735H34.284L33.992 31.3555L30 32.7185L29.5 35L30 36.808L37.692 34.2766L38.3735 23.0791L38.8605 15.2896Z" fill="#FEFDEF"/>
<path d="M30 15.2896V19.1841H21.334L21.042 15.2896H30ZM25.521 23.0791L25.7155 26.9735H30V23.0791H25.521ZM25.9105 28.9211H22.016L22.308 34.2766L30 36.808V32.7185L26.008 31.3555L25.9105 28.9211Z" fill="#EEECD9"/>
<path d="M30 15.5395C29.862 15.5395 29.75 15.4275 29.75 15.2895V10.25C29.75 10.112 29.862 10 30 10H31.75C31.888 10 32 10.112 32 10.25C32 10.388 31.888 10.5 31.75 10.5H30.25V15.2895C30.25 15.4275 30.138 15.5395 30 15.5395Z" fill="#1F212B"/>
<path d="M35.25 10.5H33.25C33.112 10.5 33 10.388 33 10.25C33 10.112 33.112 10 33.25 10H35.25C35.388 10 35.5 10.112 35.5 10.25C35.5 10.388 35.388 10.5 35.25 10.5Z" fill="#1F212B"/>
<path d="M30 41.7315C29.9465 41.7315 29.8935 41.714 29.8495 41.681C29.7865 41.6335 29.75 41.5595 29.75 41.4815V38.25C29.75 38.112 29.862 38 30 38C30.138 38 30.25 38.112 30.25 38.25V41.15L40.6715 38.1725L43.0815 10.5H36.75C36.612 10.5 36.5 10.388 36.5 10.25C36.5 10.112 36.612 10 36.75 10H43.3545C43.425 10 43.491 10.0295 43.5385 10.081C43.586 10.1325 43.61 10.202 43.6035 10.2715L41.1545 38.387C41.1455 38.4905 41.074 38.577 40.9745 38.606L30.069 41.722C30.046 41.7285 30.023 41.7315 30 41.7315Z" fill="#1F212B"/>
<path d="M30 32.9686C29.862 32.9686 29.75 32.8566 29.75 32.7186V28.4736C29.75 28.3356 29.862 28.2236 30 28.2236C30.138 28.2236 30.25 28.3356 30.25 28.4736V32.7186C30.25 32.8566 30.138 32.9686 30 32.9686Z" fill="#1F212B"/>
<path d="M30 23.3291C29.862 23.3291 29.75 23.2171 29.75 23.0791V20.6846C29.75 20.5466 29.862 20.4346 30 20.4346C30.138 20.4346 30.25 20.5466 30.25 20.6846V23.0791C30.25 23.2171 30.138 23.3291 30 23.3291Z" fill="#1F212B"/>
<path d="M29.9999 37.058C29.9734 37.058 29.9474 37.054 29.9219 37.0455L22.2299 34.514C22.1324 34.482 22.0639 34.393 22.0584 34.29L21.7659 28.935C21.7619 28.8665 21.7869 28.7995 21.8339 28.7495C21.8814 28.6995 21.9469 28.6715 22.0154 28.6715H25.9104C26.0449 28.6715 26.1549 28.7775 26.1604 28.9115L26.2509 31.1745L29.9999 32.4545L33.7539 31.1725L34.0169 27.224H25.7159C25.5824 27.224 25.4729 27.1195 25.4664 26.9865L25.2714 23.0915C25.2679 23.023 25.2924 22.956 25.3399 22.9065C25.3874 22.857 25.4529 22.829 25.5209 22.829H34.2469L34.5014 19.4345H21.3339C21.2029 19.4345 21.0944 19.3335 21.0844 19.2035L20.7924 15.3085C20.7874 15.239 20.8114 15.1705 20.8589 15.12C20.9064 15.069 20.9729 15.04 21.0419 15.04H38.8604C38.9294 15.04 38.9954 15.0685 39.0424 15.119C39.0894 15.1695 39.1144 15.237 39.1099 15.306L37.9414 34.2925C37.9349 34.395 37.8674 34.483 37.7699 34.515L30.0779 37.0465C30.0524 37.0535 30.0264 37.058 29.9999 37.058ZM22.5484 34.0925L29.9999 36.5445L37.4524 34.0915L38.5939 15.5395H21.3114L21.5659 18.9345H34.7709C34.8404 18.9345 34.9064 18.9635 34.9539 19.0145C35.0014 19.0655 35.0254 19.1335 35.0204 19.203L34.7284 23.0975C34.7184 23.228 34.6099 23.3285 34.4789 23.3285H25.7834L25.9534 26.7235H34.2839C34.3534 26.7235 34.4194 26.752 34.4664 26.8025C34.5134 26.853 34.5379 26.921 34.5334 26.99L34.2414 31.3715C34.2344 31.472 34.1684 31.559 34.0724 31.5915L30.0804 32.955C30.0284 32.973 29.9709 32.973 29.9194 32.955L25.9274 31.5915C25.8294 31.558 25.7624 31.468 25.7579 31.365L25.6704 29.171H22.2799L22.5484 34.0925Z" fill="#1F212B"/>
<g filter="url(#filter0_f_324_121)">
<ellipse cx="30" cy="57.5" rx="20" ry="2.5" fill="#09ACE3"/>
</g>
<defs>
<filter id="filter0_f_324_121" x="0" y="45" width="60" height="25" filterUnits="userSpaceOnUse" color-interpolation-filters="sRGB">
<feFlood flood-opacity="0" result="BackgroundImageFix"/>
<feBlend mode="normal" in="SourceGraphic" in2="BackgroundImageFix" result="shape"/>
<feGaussianBlur stdDeviation="5" result="effect1_foregroundBlur_324_121"/>
</filter>
</defs>
</svg>
